<?xml version="1.0" encoding="UTF-8"?>
<svg xmlns="http://www.w3.org/2000/svg" viewBox="0 0 1587 1122" width="1587" height="1122" role="img" aria-label="Bus CAN: cabina e piani (12 fermate, espandibile a 24)">
<title>T07 — Bus CAN: cabina e piani (12 fermate, espandibile a 24)</title>
<defs></defs>
<rect width="1587" height="1122" fill="#ffffff"/>

<rect x="8" y="8" width="1571" height="1106" fill="none" stroke="#111827" stroke-width="2"/>
<rect x="14" y="14" width="1559" height="1094" fill="none" stroke="#111827" stroke-width="0.8"/>
<g font-family="DejaVu Sans, Arial, sans-serif">
<rect x="40" y="60" width="250" height="360" rx="8" fill="none" stroke="#111827" stroke-width="1.2"/>
<text x="50" y="76" font-size="12" text-anchor="start" font-weight="700" fill="#111827"><tspan x="50" dy="0">QUADRO</tspan></text>
<rect x="60" y="90" width="210" height="100" rx="6" fill="#eff6ff" stroke="#111827" stroke-width="1.6"/>
<text x="165" y="129.875" font-size="13" text-anchor="middle" font-weight="700" fill="#111827"><tspan x="165" dy="0">CPU PLC</tspan></text>
<text x="165" y="146.125" font-size="11" text-anchor="middle" font-weight="400" fill="#6b7280"><tspan x="165" dy="0">due porte CAN (CAN1 e CAN2)</tspan><tspan x="165" dy="13.75">o 2 gateway CAN-Ethernet</tspan></text>
<rect x="60" y="330" width="210" height="60" rx="6" fill="#eff6ff" stroke="#111827" stroke-width="1.6"/>
<text x="165" y="357.525" font-size="12.4" text-anchor="middle" font-weight="700" fill="#111827"><tspan x="165" dy="0">Alimentazione 24 V</tspan></text>
<text x="165" y="373.025" font-size="10.4" text-anchor="middle" font-weight="400" fill="#6b7280"><tspan x="165" dy="0">protetta · una coppia per segmento</tspan></text>
<text x="276" y="112" font-size="10.5" text-anchor="start" font-weight="700" fill="#c2410c"><tspan x="276" dy="0">CAN2</tspan></text>
<text x="276" y="162" font-size="10.5" text-anchor="start" font-weight="700" fill="#c2410c"><tspan x="276" dy="0">CAN1</tspan></text>
<rect x="292" y="114" width="30" height="12" rx="0" fill="#fff" stroke="#c2410c" stroke-width="1.2"/>
<text x="307" y="138" font-size="8.5" text-anchor="middle" font-weight="400" fill="#c2410c"><tspan x="307" dy="0">120 Ω</tspan></text>
<rect x="292" y="164" width="30" height="12" rx="0" fill="#fff" stroke="#c2410c" stroke-width="1.2"/>
<text x="307" y="188" font-size="8.5" text-anchor="middle" font-weight="400" fill="#c2410c"><tspan x="307" dy="0">120 Ω</tspan></text>
<rect x="460" y="50" width="760" height="700" rx="8" fill="none" stroke="#6b7280" stroke-width="1.2" stroke-dasharray="6 4"/>
<text x="470" y="66" font-size="12" text-anchor="start" font-weight="700" fill="#6b7280"><tspan x="470" dy="0">VANO DI CORSA (vista schematica)</tspan></text>
<rect x="520" y="290" width="200" height="150" rx="4" fill="#f1f5f9" stroke="#111827" stroke-width="2"/>
<text x="620" y="308" font-size="12" text-anchor="middle" font-weight="700" fill="#111827"><tspan x="620" dy="0">CABINA</tspan></text>
<rect x="532" y="322" width="82" height="38" rx="6" fill="#fff7ed" stroke="#111827" stroke-width="1.6"/>
<text x="573" y="338.875" font-size="11" text-anchor="middle" font-weight="700" fill="#111827"><tspan x="573" dy="0">COP</tspan></text>
<text x="573" y="352.625" font-size="9" text-anchor="middle" font-weight="400" fill="#6b7280"><tspan x="573" dy="0">pulsanti 12-24</tspan></text>
<rect x="626" y="322" width="82" height="38" rx="6" fill="#fff7ed" stroke="#111827" stroke-width="1.6"/>
<text x="667" y="338.875" font-size="11" text-anchor="middle" font-weight="700" fill="#111827"><tspan x="667" dy="0">Display</tspan></text>
<text x="667" y="352.625" font-size="9" text-anchor="middle" font-weight="400" fill="#6b7280"><tspan x="667" dy="0">frecce · gong</tspan></text>
<rect x="532" y="372" width="82" height="38" rx="6" fill="#fff7ed" stroke="#111827" stroke-width="1.6"/>
<text x="573" y="388.875" font-size="11" text-anchor="middle" font-weight="700" fill="#111827"><tspan x="573" dy="0">Porte</tspan></text>
<text x="573" y="402.625" font-size="9" text-anchor="middle" font-weight="400" fill="#6b7280"><tspan x="573" dy="0">inverter</tspan></text>
<rect x="626" y="372" width="82" height="38" rx="6" fill="#fff7ed" stroke="#111827" stroke-width="1.6"/>
<text x="667" y="388.875" font-size="11" text-anchor="middle" font-weight="700" fill="#111827"><tspan x="667" dy="0">Pesacarico</tspan></text>
<text x="667" y="402.625" font-size="9" text-anchor="middle" font-weight="400" fill="#6b7280"><tspan x="667" dy="0">carico</tspan></text>
<text x="620" y="430" font-size="9.5" text-anchor="middle" font-weight="400" fill="#6b7280"><tspan x="620" dy="0">cass. derivazione cabina</tspan></text>
<polyline points="270,170 350,170 350,360 520,360" fill="none" stroke="#c2410c" stroke-width="2.4" stroke-linejoin="round" stroke-linecap="round"/>
<text x="362" y="200" font-size="11" text-anchor="start" font-weight="700" fill="#c2410c"><tspan x="362" dy="0">CAN1: cavo mobile</tspan></text>
<text x="362" y="216" font-size="10" text-anchor="start" font-weight="400" fill="#6b7280"><tspan x="362" dy="0">2 fili CAN + schermo +</tspan><tspan x="362" dy="12.5">24 V (coppie dedicate)</tspan></text>
<polyline points="270,120 920,120 920,700" fill="none" stroke="#c2410c" stroke-width="2.4" stroke-linejoin="round" stroke-linecap="round"/>
<text x="934" y="112" font-size="11" text-anchor="start" font-weight="700" fill="#c2410c"><tspan x="934" dy="0">CAN2: dorsale nel vano (stub ≤ 0,3 m)</tspan></text>
<line x1="750" y1="168" x2="880" y2="168" stroke="#6b7280" stroke-width="1" stroke-dasharray="3 3" stroke-linecap="round"/>
<text x="758" y="164" font-size="10.5" text-anchor="start" font-weight="400" fill="#6b7280"><tspan x="758" dy="0">Piano 12</tspan></text>
<line x1="920" y1="168" x2="938" y2="168" stroke="#c2410c" stroke-width="2" stroke-linecap="round"/>
<rect x="938" y="154" width="128" height="30" rx="3" fill="#fff7ed" stroke="#c2410c" stroke-width="1.2"/>
<text x="1002" y="167" font-size="10.5" text-anchor="middle" font-weight="700" fill="#111827"><tspan x="1002" dy="0">Nodo N12</tspan></text>
<text x="1002" y="179" font-size="8.5" text-anchor="middle" font-weight="400" fill="#6b7280"><tspan x="1002" dy="0">2 tasti · LED · gong</tspan></text>
<circle cx="920" cy="168" r="3" fill="#c2410c"/>
<line x1="750" y1="210" x2="880" y2="210" stroke="#6b7280" stroke-width="1" stroke-dasharray="3 3" stroke-linecap="round"/>
<text x="758" y="206" font-size="10.5" text-anchor="start" font-weight="400" fill="#6b7280"><tspan x="758" dy="0">Piano 11</tspan></text>
<line x1="920" y1="210" x2="938" y2="210" stroke="#c2410c" stroke-width="2" stroke-linecap="round"/>
<rect x="938" y="196" width="128" height="30" rx="3" fill="#fff7ed" stroke="#c2410c" stroke-width="1.2"/>
<text x="1002" y="209" font-size="10.5" text-anchor="middle" font-weight="700" fill="#111827"><tspan x="1002" dy="0">Nodo N11</tspan></text>
<text x="1002" y="221" font-size="8.5" text-anchor="middle" font-weight="400" fill="#6b7280"><tspan x="1002" dy="0">2 tasti · LED · gong</tspan></text>
<circle cx="920" cy="210" r="3" fill="#c2410c"/>
<line x1="750" y1="252" x2="880" y2="252" stroke="#6b7280" stroke-width="1" stroke-dasharray="3 3" stroke-linecap="round"/>
<text x="758" y="248" font-size="10.5" text-anchor="start" font-weight="400" fill="#6b7280"><tspan x="758" dy="0">Piano 10</tspan></text>
<line x1="920" y1="252" x2="938" y2="252" stroke="#c2410c" stroke-width="2" stroke-linecap="round"/>
<rect x="938" y="238" width="128" height="30" rx="3" fill="#fff7ed" stroke="#c2410c" stroke-width="1.2"/>
<text x="1002" y="251" font-size="10.5" text-anchor="middle" font-weight="700" fill="#111827"><tspan x="1002" dy="0">Nodo N10</tspan></text>
<text x="1002" y="263" font-size="8.5" text-anchor="middle" font-weight="400" fill="#6b7280"><tspan x="1002" dy="0">2 tasti · LED · gong</tspan></text>
<circle cx="920" cy="252" r="3" fill="#c2410c"/>
<line x1="750" y1="294" x2="880" y2="294" stroke="#6b7280" stroke-width="1" stroke-dasharray="3 3" stroke-linecap="round"/>
<text x="758" y="290" font-size="10.5" text-anchor="start" font-weight="400" fill="#6b7280"><tspan x="758" dy="0">Piano 9</tspan></text>
<line x1="920" y1="294" x2="938" y2="294" stroke="#c2410c" stroke-width="2" stroke-linecap="round"/>
<rect x="938" y="280" width="128" height="30" rx="3" fill="#fff7ed" stroke="#c2410c" stroke-width="1.2"/>
<text x="1002" y="293" font-size="10.5" text-anchor="middle" font-weight="700" fill="#111827"><tspan x="1002" dy="0">Nodo N9</tspan></text>
<text x="1002" y="305" font-size="8.5" text-anchor="middle" font-weight="400" fill="#6b7280"><tspan x="1002" dy="0">2 tasti · LED · gong</tspan></text>
<circle cx="920" cy="294" r="3" fill="#c2410c"/>
<line x1="750" y1="336" x2="880" y2="336" stroke="#6b7280" stroke-width="1" stroke-dasharray="3 3" stroke-linecap="round"/>
<text x="758" y="332" font-size="10.5" text-anchor="start" font-weight="400" fill="#6b7280"><tspan x="758" dy="0">Piano 8</tspan></text>
<line x1="920" y1="336" x2="938" y2="336" stroke="#c2410c" stroke-width="2" stroke-linecap="round"/>
<rect x="938" y="322" width="128" height="30" rx="3" fill="#fff7ed" stroke="#c2410c" stroke-width="1.2"/>
<text x="1002" y="335" font-size="10.5" text-anchor="middle" font-weight="700" fill="#111827"><tspan x="1002" dy="0">Nodo N8</tspan></text>
<text x="1002" y="347" font-size="8.5" text-anchor="middle" font-weight="400" fill="#6b7280"><tspan x="1002" dy="0">2 tasti · LED · gong</tspan></text>
<circle cx="920" cy="336" r="3" fill="#c2410c"/>
<line x1="750" y1="378" x2="880" y2="378" stroke="#6b7280" stroke-width="1" stroke-dasharray="3 3" stroke-linecap="round"/>
<text x="758" y="374" font-size="10.5" text-anchor="start" font-weight="400" fill="#6b7280"><tspan x="758" dy="0">Piano 7</tspan></text>
<line x1="920" y1="378" x2="938" y2="378" stroke="#c2410c" stroke-width="2" stroke-linecap="round"/>
<rect x="938" y="364" width="128" height="30" rx="3" fill="#fff7ed" stroke="#c2410c" stroke-width="1.2"/>
<text x="1002" y="377" font-size="10.5" text-anchor="middle" font-weight="700" fill="#111827"><tspan x="1002" dy="0">Nodo N7</tspan></text>
<text x="1002" y="389" font-size="8.5" text-anchor="middle" font-weight="400" fill="#6b7280"><tspan x="1002" dy="0">2 tasti · LED · gong</tspan></text>
<circle cx="920" cy="378" r="3" fill="#c2410c"/>
<line x1="750" y1="420" x2="880" y2="420" stroke="#6b7280" stroke-width="1" stroke-dasharray="3 3" stroke-linecap="round"/>
<text x="758" y="416" font-size="10.5" text-anchor="start" font-weight="400" fill="#6b7280"><tspan x="758" dy="0">Piano 6</tspan></text>
<line x1="920" y1="420" x2="938" y2="420" stroke="#c2410c" stroke-width="2" stroke-linecap="round"/>
<rect x="938" y="406" width="128" height="30" rx="3" fill="#fff7ed" stroke="#c2410c" stroke-width="1.2"/>
<text x="1002" y="419" font-size="10.5" text-anchor="middle" font-weight="700" fill="#111827"><tspan x="1002" dy="0">Nodo N6</tspan></text>
<text x="1002" y="431" font-size="8.5" text-anchor="middle" font-weight="400" fill="#6b7280"><tspan x="1002" dy="0">2 tasti · LED · gong</tspan></text>
<circle cx="920" cy="420" r="3" fill="#c2410c"/>
<line x1="750" y1="462" x2="880" y2="462" stroke="#6b7280" stroke-width="1" stroke-dasharray="3 3" stroke-linecap="round"/>
<text x="758" y="458" font-size="10.5" text-anchor="start" font-weight="400" fill="#6b7280"><tspan x="758" dy="0">Piano 5</tspan></text>
<line x1="920" y1="462" x2="938" y2="462" stroke="#c2410c" stroke-width="2" stroke-linecap="round"/>
<rect x="938" y="448" width="128" height="30" rx="3" fill="#fff7ed" stroke="#c2410c" stroke-width="1.2"/>
<text x="1002" y="461" font-size="10.5" text-anchor="middle" font-weight="700" fill="#111827"><tspan x="1002" dy="0">Nodo N5</tspan></text>
<text x="1002" y="473" font-size="8.5" text-anchor="middle" font-weight="400" fill="#6b7280"><tspan x="1002" dy="0">2 tasti · LED · gong</tspan></text>
<circle cx="920" cy="462" r="3" fill="#c2410c"/>
<line x1="750" y1="504" x2="880" y2="504" stroke="#6b7280" stroke-width="1" stroke-dasharray="3 3" stroke-linecap="round"/>
<text x="758" y="500" font-size="10.5" text-anchor="start" font-weight="400" fill="#6b7280"><tspan x="758" dy="0">Piano 4</tspan></text>
<line x1="920" y1="504" x2="938" y2="504" stroke="#c2410c" stroke-width="2" stroke-linecap="round"/>
<rect x="938" y="490" width="128" height="30" rx="3" fill="#fff7ed" stroke="#c2410c" stroke-width="1.2"/>
<text x="1002" y="503" font-size="10.5" text-anchor="middle" font-weight="700" fill="#111827"><tspan x="1002" dy="0">Nodo N4</tspan></text>
<text x="1002" y="515" font-size="8.5" text-anchor="middle" font-weight="400" fill="#6b7280"><tspan x="1002" dy="0">2 tasti · LED · gong</tspan></text>
<circle cx="920" cy="504" r="3" fill="#c2410c"/>
<line x1="750" y1="546" x2="880" y2="546" stroke="#6b7280" stroke-width="1" stroke-dasharray="3 3" stroke-linecap="round"/>
<text x="758" y="542" font-size="10.5" text-anchor="start" font-weight="400" fill="#6b7280"><tspan x="758" dy="0">Piano 3</tspan></text>
<line x1="920" y1="546" x2="938" y2="546" stroke="#c2410c" stroke-width="2" stroke-linecap="round"/>
<rect x="938" y="532" width="128" height="30" rx="3" fill="#fff7ed" stroke="#c2410c" stroke-width="1.2"/>
<text x="1002" y="545" font-size="10.5" text-anchor="middle" font-weight="700" fill="#111827"><tspan x="1002" dy="0">Nodo N3</tspan></text>
<text x="1002" y="557" font-size="8.5" text-anchor="middle" font-weight="400" fill="#6b7280"><tspan x="1002" dy="0">2 tasti · LED · gong</tspan></text>
<circle cx="920" cy="546" r="3" fill="#c2410c"/>
<line x1="750" y1="588" x2="880" y2="588" stroke="#6b7280" stroke-width="1" stroke-dasharray="3 3" stroke-linecap="round"/>
<text x="758" y="584" font-size="10.5" text-anchor="start" font-weight="400" fill="#6b7280"><tspan x="758" dy="0">Piano 2</tspan></text>
<line x1="920" y1="588" x2="938" y2="588" stroke="#c2410c" stroke-width="2" stroke-linecap="round"/>
<rect x="938" y="574" width="128" height="30" rx="3" fill="#fff7ed" stroke="#c2410c" stroke-width="1.2"/>
<text x="1002" y="587" font-size="10.5" text-anchor="middle" font-weight="700" fill="#111827"><tspan x="1002" dy="0">Nodo N2</tspan></text>
<text x="1002" y="599" font-size="8.5" text-anchor="middle" font-weight="400" fill="#6b7280"><tspan x="1002" dy="0">2 tasti · LED · gong</tspan></text>
<circle cx="920" cy="588" r="3" fill="#c2410c"/>
<line x1="750" y1="630" x2="880" y2="630" stroke="#6b7280" stroke-width="1" stroke-dasharray="3 3" stroke-linecap="round"/>
<text x="758" y="626" font-size="10.5" text-anchor="start" font-weight="400" fill="#6b7280"><tspan x="758" dy="0">Piano 1</tspan></text>
<line x1="920" y1="630" x2="938" y2="630" stroke="#c2410c" stroke-width="2" stroke-linecap="round"/>
<rect x="938" y="616" width="128" height="30" rx="3" fill="#fff7ed" stroke="#c2410c" stroke-width="1.2"/>
<text x="1002" y="629" font-size="10.5" text-anchor="middle" font-weight="700" fill="#111827"><tspan x="1002" dy="0">Nodo N1</tspan></text>
<text x="1002" y="641" font-size="8.5" text-anchor="middle" font-weight="400" fill="#6b7280"><tspan x="1002" dy="0">2 tasti · LED · gong</tspan></text>
<circle cx="920" cy="630" r="3" fill="#c2410c"/>
<rect x="938" y="660" width="128" height="40" rx="3" fill="#fff" stroke="#c2410c" stroke-width="1.2" stroke-dasharray="5 4"/>
<text x="1002" y="678" font-size="11" text-anchor="middle" font-weight="700" fill="#c2410c"><tspan x="1002" dy="0">Piani 13…24</tspan></text>
<text x="1002" y="692" font-size="9" text-anchor="middle" font-weight="400" fill="#6b7280"><tspan x="1002" dy="0">espansione (T16)</tspan></text>
<polyline points="920,674 920,724" fill="none" stroke="#c2410c" stroke-width="2.4" stroke-linejoin="round" stroke-linecap="round"/>
<rect x="902" y="724" width="36" height="22" rx="6" fill="#fff" stroke="#c2410c" stroke-width="1.6"/>
<text x="920" y="738.1875" font-size="8.5" text-anchor="middle" font-weight="700" fill="#c2410c"><tspan x="920" dy="0">120Ω</tspan></text>
<polyline points="895,156 895,636" fill="none" stroke="#15803d" stroke-width="2.4" stroke-linejoin="round" stroke-linecap="round"/>
<text x="885" y="140" font-size="10" text-anchor="middle" font-weight="700" fill="#15803d"><tspan x="885" dy="0">catena serrature piano</tspan></text>
<text x="885" y="152" font-size="9" text-anchor="middle" font-weight="400" fill="#15803d"><tspan x="885" dy="0">(2 fili, T04)</tspan></text>
<rect x="40" y="450" width="400" height="300" rx="8" fill="none" stroke="#6b7280" stroke-width="1.2" stroke-dasharray="6 4"/>
<text x="50" y="466" font-size="12" text-anchor="start" font-weight="700" fill="#6b7280"><tspan x="50" dy="0">Regole del bus (da verificare in progetto esecutivo)</tspan></text>
<text x="54" y="482" font-size="11" text-anchor="start" font-weight="400" fill="#111827"><tspan x="54" dy="0">Velocità 125 kbit/s: lunghezza massima 500 m per segmento</tspan></text>
<text x="54" y="499" font-size="11" text-anchor="start" font-weight="400" fill="#111827"><tspan x="54" dy="0">(raccomandazione CiA 102); vano da 24 fermate ≈ 80–100 m.</tspan></text>
<text x="54" y="516" font-size="11" text-anchor="start" font-weight="400" fill="#111827"><tspan x="54" dy="0">Cavo: coppia twistata schermata 120 Ω; schermo a terra solo</tspan></text>
<text x="54" y="533" font-size="11" text-anchor="start" font-weight="400" fill="#111827"><tspan x="54" dy="0">a un'estremità (quadro); stub ≤ 0,3 m; terminazione 120 Ω</tspan></text>
<text x="54" y="550" font-size="11" text-anchor="start" font-weight="400" fill="#111827"><tspan x="54" dy="0">ai due capi di ogni segmento.</tspan></text>
<text x="54" y="567" font-size="11" text-anchor="start" font-weight="400" fill="#111827"><tspan x="54" dy="0">Indirizzi nodo: DIP-switch o pulsante di auto-assegnazione;</tspan></text>
<text x="54" y="584" font-size="11" text-anchor="start" font-weight="400" fill="#111827"><tspan x="54" dy="0">nodo di piano = indirizzo del piano (1…24).</tspan></text>
<text x="54" y="601" font-size="11" text-anchor="start" font-weight="400" fill="#111827"><tspan x="54" dy="0">Alimentazione 24 V per nodo: ≈ 50 mA → 24 nodi ≈ 1,2 A</tspan></text>
<text x="54" y="618" font-size="11" text-anchor="start" font-weight="400" fill="#111827"><tspan x="54" dy="0">(sezione e caduta da calcolare).</tspan></text>
<text x="54" y="635" font-size="11" text-anchor="start" font-weight="400" fill="#111827"><tspan x="54" dy="0">Il bus non porta mai segnali di sicurezza: chiavi pompieri e</tspan></text>
<text x="54" y="652" font-size="11" text-anchor="start" font-weight="400" fill="#111827"><tspan x="54" dy="0">serrature sono cablate (vedi T04 e punti EN 81-73 in</tspan></text>
<text x="54" y="669" font-size="11" text-anchor="start" font-weight="400" fill="#111827"><tspan x="54" dy="0">02-normativa).</tspan></text>
<text x="54" y="686" font-size="11" text-anchor="start" font-weight="400" fill="#111827"><tspan x="54" dy="0">Guasto del bus = ascensore fermo al piano con porte</tspan></text>
<text x="54" y="703" font-size="11" text-anchor="start" font-weight="400" fill="#111827"><tspan x="54" dy="0">apribili, mai movimento incontrollato.</tspan></text>
<rect x="1330" y="640" width="230" height="76" rx="4" fill="#fff" stroke="#6b7280" stroke-width="1"/>
<text x="1338" y="655" font-size="11" text-anchor="start" font-weight="700" fill="#111827"><tspan x="1338" dy="0">Legenda</tspan></text>
<line x1="1340" y1="672" x2="1376" y2="672" stroke="#c2410c" stroke-width="3" stroke-linecap="round"/>
<text x="1384" y="676" font-size="10.5" text-anchor="start" font-weight="400" fill="#111827"><tspan x="1384" dy="0">Bus CAN (segnali + 24 V)</tspan></text>
<line x1="1340" y1="690" x2="1376" y2="690" stroke="#15803d" stroke-width="3" stroke-linecap="round"/>
<text x="1384" y="694" font-size="10.5" text-anchor="start" font-weight="400" fill="#111827"><tspan x="1384" dy="0">Catena serrature (cablata)</tspan></text>
<line x1="1340" y1="708" x2="1376" y2="708" stroke="#6b7280" stroke-width="3" stroke-dasharray="3 3" stroke-linecap="round"/>
<text x="1384" y="712" font-size="10.5" text-anchor="start" font-weight="400" fill="#111827"><tspan x="1384" dy="0">Quota di piano (indicativa)</tspan></text>
</g>

<g font-family="DejaVu Sans, Arial, sans-serif">
<rect x="827" y="1010" width="746" height="98" fill="#fff" stroke="#111827" stroke-width="1.2"/>
<line x1="827" y1="1042" x2="1573" y2="1042" stroke="#111827" stroke-width="0.8"/>
<line x1="1437" y1="1010" x2="1437" y2="1108" stroke="#111827" stroke-width="0.8"/>
<line x1="1437" y1="1075" x2="1573" y2="1075" stroke="#111827" stroke-width="0.8"/>
<text x="837" y="1028" font-size="10" fill="#6b7280">QUADRO DI MANOVRA A PLC — PROGETTO DI FATTIBILITÀ · Carbon Stealth VCC</text>
<text x="837" y="1062" font-size="17" font-weight="700" fill="#111827">Bus CAN: cabina e piani (12 fermate, espandibile a 24)</text>
<text x="837" y="1084" font-size="11" fill="#374151">Due segmenti separati sulla CPU: CAN1 cabina (cavo mobile) · CAN2 piani (dorsale nel vano)</text>
<text x="837" y="1100" font-size="10" fill="#b45309">Schema di principio: non è un esecutivo. Lo firma un progettista abilitato.</text>
<text x="1445" y="1026" font-size="10" fill="#6b7280">Tavola</text>
<text x="1445" y="1056" font-size="26" font-weight="700">T07</text>
<text x="1445" y="1090" font-size="10" fill="#6b7280">Rev. A · 2026-10-07</text>
<text x="1445" y="1103" font-size="10" fill="#6b7280">A3 · senza scala</text>
</g>
</svg>
