<?xml version="1.0" encoding="UTF-8"?>
<svg xmlns="http://www.w3.org/2000/svg" viewBox="0 0 1587 1122" width="1587" height="1122" role="img" aria-label="Copertina, indice, legenda e convenzioni">
<title>E00 — Copertina, indice, legenda e convenzioni</title>
<rect width="1587" height="1122" fill="#ffffff"/>

<rect x="6" y="6" width="1575" height="1110" fill="none" stroke="#111111" stroke-width="1.6"/>
<rect x="22" y="22" width="1543" height="1078" fill="none" stroke="#111111" stroke-width="0.8"/><line x1="22" y1="6" x2="22" y2="22" stroke="#111111" stroke-width="0.6"/><line x1="22" y1="1100" x2="22" y2="1116" stroke="#111111" stroke-width="0.6"/><text x="70.21875" y="18" font-size="9" text-anchor="middle" fill="#111111">1</text><text x="70.21875" y="1112" font-size="9" text-anchor="middle" fill="#111111">1</text><line x1="118.4375" y1="6" x2="118.4375" y2="22" stroke="#111111" stroke-width="0.6"/><line x1="118.4375" y1="1100" x2="118.4375" y2="1116" stroke="#111111" stroke-width="0.6"/><text x="166.65625" y="18" font-size="9" text-anchor="middle" fill="#111111">2</text><text x="166.65625" y="1112" font-size="9" text-anchor="middle" fill="#111111">2</text><line x1="214.875" y1="6" x2="214.875" y2="22" stroke="#111111" stroke-width="0.6"/><line x1="214.875" y1="1100" x2="214.875" y2="1116" stroke="#111111" stroke-width="0.6"/><text x="263.09375" y="18" font-size="9" text-anchor="middle" fill="#111111">3</text><text x="263.09375" y="1112" font-size="9" text-anchor="middle" fill="#111111">3</text><line x1="311.3125" y1="6" x2="311.3125" y2="22" stroke="#111111" stroke-width="0.6"/><line x1="311.3125" y1="1100" x2="311.3125" y2="1116" stroke="#111111" stroke-width="0.6"/><text x="359.53125" y="18" font-size="9" text-anchor="middle" fill="#111111">4</text><text x="359.53125" y="1112" font-size="9" text-anchor="middle" fill="#111111">4</text><line x1="407.75" y1="6" x2="407.75" y2="22" stroke="#111111" stroke-width="0.6"/><line x1="407.75" y1="1100" x2="407.75" y2="1116" stroke="#111111" stroke-width="0.6"/><text x="455.96875" y="18" font-size="9" text-anchor="middle" fill="#111111">5</text><text x="455.96875" y="1112" font-size="9" text-anchor="middle" fill="#111111">5</text><line x1="504.1875" y1="6" x2="504.1875" y2="22" stroke="#111111" stroke-width="0.6"/><line x1="504.1875" y1="1100" x2="504.1875" y2="1116" stroke="#111111" stroke-width="0.6"/><text x="552.40625" y="18" font-size="9" text-anchor="middle" fill="#111111">6</text><text x="552.40625" y="1112" font-size="9" text-anchor="middle" fill="#111111">6</text><line x1="600.625" y1="6" x2="600.625" y2="22" stroke="#111111" stroke-width="0.6"/><line x1="600.625" y1="1100" x2="600.625" y2="1116" stroke="#111111" stroke-width="0.6"/><text x="648.84375" y="18" font-size="9" text-anchor="middle" fill="#111111">7</text><text x="648.84375" y="1112" font-size="9" text-anchor="middle" fill="#111111">7</text><line x1="697.0625" y1="6" x2="697.0625" y2="22" stroke="#111111" stroke-width="0.6"/><line x1="697.0625" y1="1100" x2="697.0625" y2="1116" stroke="#111111" stroke-width="0.6"/><text x="745.28125" y="18" font-size="9" text-anchor="middle" fill="#111111">8</text><text x="745.28125" y="1112" font-size="9" text-anchor="middle" fill="#111111">8</text><line x1="793.5" y1="6" x2="793.5" y2="22" stroke="#111111" stroke-width="0.6"/><line x1="793.5" y1="1100" x2="793.5" y2="1116" stroke="#111111" stroke-width="0.6"/><text x="841.71875" y="18" font-size="9" text-anchor="middle" fill="#111111">9</text><text x="841.71875" y="1112" font-size="9" text-anchor="middle" fill="#111111">9</text><line x1="889.9375" y1="6" x2="889.9375" y2="22" stroke="#111111" stroke-width="0.6"/><line x1="889.9375" y1="1100" x2="889.9375" y2="1116" stroke="#111111" stroke-width="0.6"/><text x="938.15625" y="18" font-size="9" text-anchor="middle" fill="#111111">10</text><text x="938.15625" y="1112" font-size="9" text-anchor="middle" fill="#111111">10</text><line x1="986.375" y1="6" x2="986.375" y2="22" stroke="#111111" stroke-width="0.6"/><line x1="986.375" y1="1100" x2="986.375" y2="1116" stroke="#111111" stroke-width="0.6"/><text x="1034.59375" y="18" font-size="9" text-anchor="middle" fill="#111111">11</text><text x="1034.59375" y="1112" font-size="9" text-anchor="middle" fill="#111111">11</text><line x1="1082.8125" y1="6" x2="1082.8125" y2="22" stroke="#111111" stroke-width="0.6"/><line x1="1082.8125" y1="1100" x2="1082.8125" y2="1116" stroke="#111111" stroke-width="0.6"/><text x="1131.03125" y="18" font-size="9" text-anchor="middle" fill="#111111">12</text><text x="1131.03125" y="1112" font-size="9" text-anchor="middle" fill="#111111">12</text><line x1="1179.25" y1="6" x2="1179.25" y2="22" stroke="#111111" stroke-width="0.6"/><line x1="1179.25" y1="1100" x2="1179.25" y2="1116" stroke="#111111" stroke-width="0.6"/><text x="1227.46875" y="18" font-size="9" text-anchor="middle" fill="#111111">13</text><text x="1227.46875" y="1112" font-size="9" text-anchor="middle" fill="#111111">13</text><line x1="1275.6875" y1="6" x2="1275.6875" y2="22" stroke="#111111" stroke-width="0.6"/><line x1="1275.6875" y1="1100" x2="1275.6875" y2="1116" stroke="#111111" stroke-width="0.6"/><text x="1323.90625" y="18" font-size="9" text-anchor="middle" fill="#111111">14</text><text x="1323.90625" y="1112" font-size="9" text-anchor="middle" fill="#111111">14</text><line x1="1372.125" y1="6" x2="1372.125" y2="22" stroke="#111111" stroke-width="0.6"/><line x1="1372.125" y1="1100" x2="1372.125" y2="1116" stroke="#111111" stroke-width="0.6"/><text x="1420.34375" y="18" font-size="9" text-anchor="middle" fill="#111111">15</text><text x="1420.34375" y="1112" font-size="9" text-anchor="middle" fill="#111111">15</text><line x1="1468.5625" y1="6" x2="1468.5625" y2="22" stroke="#111111" stroke-width="0.6"/><line x1="1468.5625" y1="1100" x2="1468.5625" y2="1116" stroke="#111111" stroke-width="0.6"/><text x="1516.78125" y="18" font-size="9" text-anchor="middle" fill="#111111">16</text><text x="1516.78125" y="1112" font-size="9" text-anchor="middle" fill="#111111">16</text><line x1="6" y1="22" x2="22" y2="22" stroke="#111111" stroke-width="0.6"/><line x1="1565" y1="22" x2="1581" y2="22" stroke="#111111" stroke-width="0.6"/><text x="14" y="92.375" font-size="9" text-anchor="middle" fill="#111111">A</text><text x="1573" y="92.375" font-size="9" text-anchor="middle" fill="#111111">A</text><line x1="6" y1="156.75" x2="22" y2="156.75" stroke="#111111" stroke-width="0.6"/><line x1="1565" y1="156.75" x2="1581" y2="156.75" stroke="#111111" stroke-width="0.6"/><text x="14" y="227.125" font-size="9" text-anchor="middle" fill="#111111">B</text><text x="1573" y="227.125" font-size="9" text-anchor="middle" fill="#111111">B</text><line x1="6" y1="291.5" x2="22" y2="291.5" stroke="#111111" stroke-width="0.6"/><line x1="1565" y1="291.5" x2="1581" y2="291.5" stroke="#111111" stroke-width="0.6"/><text x="14" y="361.875" font-size="9" text-anchor="middle" fill="#111111">C</text><text x="1573" y="361.875" font-size="9" text-anchor="middle" fill="#111111">C</text><line x1="6" y1="426.25" x2="22" y2="426.25" stroke="#111111" stroke-width="0.6"/><line x1="1565" y1="426.25" x2="1581" y2="426.25" stroke="#111111" stroke-width="0.6"/><text x="14" y="496.625" font-size="9" text-anchor="middle" fill="#111111">D</text><text x="1573" y="496.625" font-size="9" text-anchor="middle" fill="#111111">D</text><line x1="6" y1="561" x2="22" y2="561" stroke="#111111" stroke-width="0.6"/><line x1="1565" y1="561" x2="1581" y2="561" stroke="#111111" stroke-width="0.6"/><text x="14" y="631.375" font-size="9" text-anchor="middle" fill="#111111">E</text><text x="1573" y="631.375" font-size="9" text-anchor="middle" fill="#111111">E</text><line x1="6" y1="695.75" x2="22" y2="695.75" stroke="#111111" stroke-width="0.6"/><line x1="1565" y1="695.75" x2="1581" y2="695.75" stroke="#111111" stroke-width="0.6"/><text x="14" y="766.125" font-size="9" text-anchor="middle" fill="#111111">F</text><text x="1573" y="766.125" font-size="9" text-anchor="middle" fill="#111111">F</text><line x1="6" y1="830.5" x2="22" y2="830.5" stroke="#111111" stroke-width="0.6"/><line x1="1565" y1="830.5" x2="1581" y2="830.5" stroke="#111111" stroke-width="0.6"/><text x="14" y="900.875" font-size="9" text-anchor="middle" fill="#111111">G</text><text x="1573" y="900.875" font-size="9" text-anchor="middle" fill="#111111">G</text><line x1="6" y1="965.25" x2="22" y2="965.25" stroke="#111111" stroke-width="0.6"/><line x1="1565" y1="965.25" x2="1581" y2="965.25" stroke="#111111" stroke-width="0.6"/><text x="14" y="1035.625" font-size="9" text-anchor="middle" fill="#111111">H</text><text x="1573" y="1035.625" font-size="9" text-anchor="middle" fill="#111111">H</text>
<g font-family="DejaVu Sans, Arial, sans-serif">
<text x="60" y="80" font-size="22" text-anchor="start" font-weight="700" fill="#111111"><tspan x="60" dy="0">QUADRO DI MANOVRA A PLC PER ASCENSORI</tspan></text>
<text x="60" y="102" font-size="12" text-anchor="start" font-weight="400" fill="#111111"><tspan x="60" dy="0">Schemi di collegamento · trazione elettrica (argano geared) e idraulico</tspan></text>
<text x="60" y="120" font-size="9.5" text-anchor="start" font-weight="400" fill="#4b5563"><tspan x="60" dy="0">Commessa: CS-QDM-001 (esempio) · Ascensore a trazione elettrica, 12 fermate (espandibile a 24)</tspan></text>
<text x="60" y="134" font-size="9.5" text-anchor="start" font-weight="400" fill="#4b5563"><tspan x="60" dy="0">Alimentazione: 3~ 400 V + N + PE · 50 Hz · catena di sicurezza 48 V c.c. · logica 24 V c.c. · ausiliari 230 V c.a.</tspan></text>
<rect x="60" y="160" width="570" height="17" rx="0" fill="#e5e7eb" stroke="#111111" stroke-width="0.8"/>
<text x="64" y="173" font-size="8.5" text-anchor="start" font-weight="700" fill="#111111"><tspan x="64" dy="0">Foglio</tspan></text>
<text x="114" y="173" font-size="8.5" text-anchor="start" font-weight="700" fill="#111111"><tspan x="114" dy="0">Titolo</tspan></text>
<line x1="110" y1="160" x2="110" y2="500" stroke="#111111" stroke-width="0.6" stroke-linecap="round"/>
<line x1="60" y1="177" x2="630" y2="177" stroke="#111111" stroke-width="0.5" stroke-linecap="round"/>
<text x="64" y="190" font-size="9" text-anchor="start" font-weight="400" fill="#111111"><tspan x="64" dy="0">E00</tspan></text>
<text x="114" y="190" font-size="9" text-anchor="start" font-weight="400" fill="#111111"><tspan x="114" dy="0">Copertina, indice, legenda e convenzioni</tspan></text>
<line x1="60" y1="194" x2="630" y2="194" stroke="#111111" stroke-width="0.5" stroke-linecap="round"/>
<text x="64" y="207" font-size="9" text-anchor="start" font-weight="400" fill="#111111"><tspan x="64" dy="0">E01</tspan></text>
<text x="114" y="207" font-size="9" text-anchor="start" font-weight="400" fill="#111111"><tspan x="114" dy="0">Potenza — trazione (rete, inverter, contattori, motore, freno, encoder)</tspan></text>
<line x1="60" y1="211" x2="630" y2="211" stroke="#111111" stroke-width="0.5" stroke-linecap="round"/>
<text x="64" y="224" font-size="9" text-anchor="start" font-weight="400" fill="#111111"><tspan x="64" dy="0">E02</tspan></text>
<text x="114" y="224" font-size="9" text-anchor="start" font-weight="400" fill="#111111"><tspan x="114" dy="0">Potenza — idraulico (centralina, soft starter, valvole)</tspan></text>
<line x1="60" y1="228" x2="630" y2="228" stroke="#111111" stroke-width="0.5" stroke-linecap="round"/>
<text x="64" y="241" font-size="9" text-anchor="start" font-weight="400" fill="#111111"><tspan x="64" dy="0">E03</tspan></text>
<text x="114" y="241" font-size="9" text-anchor="start" font-weight="400" fill="#111111"><tspan x="114" dy="0">Ausiliari e alimentazioni (230 V, 48 V, 24 V, batteria)</tspan></text>
<line x1="60" y1="245" x2="630" y2="245" stroke="#111111" stroke-width="0.5" stroke-linecap="round"/>
<text x="64" y="258" font-size="9" text-anchor="start" font-weight="400" fill="#111111"><tspan x="64" dy="0">E04</tspan></text>
<text x="114" y="258" font-size="9" text-anchor="start" font-weight="400" fill="#111111"><tspan x="114" dy="0">Catena di sicurezza — trazione (collegamenti e morsetti)</tspan></text>
<line x1="60" y1="262" x2="630" y2="262" stroke="#111111" stroke-width="0.5" stroke-linecap="round"/>
<text x="64" y="275" font-size="9" text-anchor="start" font-weight="400" fill="#111111"><tspan x="64" dy="0">E05</tspan></text>
<text x="114" y="275" font-size="9" text-anchor="start" font-weight="400" fill="#111111"><tspan x="114" dy="0">Catena di sicurezza — idraulico (collegamenti e morsetti)</tspan></text>
<line x1="60" y1="279" x2="630" y2="279" stroke="#111111" stroke-width="0.5" stroke-linecap="round"/>
<text x="64" y="292" font-size="9" text-anchor="start" font-weight="400" fill="#111111"><tspan x="64" dy="0">E06</tspan></text>
<text x="114" y="292" font-size="9" text-anchor="start" font-weight="400" fill="#111111"><tspan x="114" dy="0">Interfaccia di sicurezza: consensi, contattori, freni e retroazioni</tspan></text>
<line x1="60" y1="296" x2="630" y2="296" stroke="#111111" stroke-width="0.5" stroke-linecap="round"/>
<text x="64" y="309" font-size="9" text-anchor="start" font-weight="400" fill="#111111"><tspan x="64" dy="0">E07</tspan></text>
<text x="114" y="309" font-size="9" text-anchor="start" font-weight="400" fill="#111111"><tspan x="114" dy="0">PLC — alimentazione e ingressi digitali (I00…I31)</tspan></text>
<line x1="60" y1="313" x2="630" y2="313" stroke="#111111" stroke-width="0.5" stroke-linecap="round"/>
<text x="64" y="326" font-size="9" text-anchor="start" font-weight="400" fill="#111111"><tspan x="64" dy="0">E08</tspan></text>
<text x="114" y="326" font-size="9" text-anchor="start" font-weight="400" fill="#111111"><tspan x="114" dy="0">PLC — uscite (Q00…Q17), ingressi analogici, encoder e CAN</tspan></text>
<line x1="60" y1="330" x2="630" y2="330" stroke="#111111" stroke-width="0.5" stroke-linecap="round"/>
<text x="64" y="343" font-size="9" text-anchor="start" font-weight="400" fill="#111111"><tspan x="64" dy="0">E09</tspan></text>
<text x="114" y="343" font-size="9" text-anchor="start" font-weight="400" fill="#111111"><tspan x="114" dy="0">Bus CAN, 24 V di bus, connettori e terminazioni</tspan></text>
<line x1="60" y1="347" x2="630" y2="347" stroke="#111111" stroke-width="0.5" stroke-linecap="round"/>
<text x="64" y="360" font-size="9" text-anchor="start" font-weight="400" fill="#111111"><tspan x="64" dy="0">E10</tspan></text>
<text x="114" y="360" font-size="9" text-anchor="start" font-weight="400" fill="#111111"><tspan x="114" dy="0">Nodo di piano (schema tipo) e dorsale del vano</tspan></text>
<line x1="60" y1="364" x2="630" y2="364" stroke="#111111" stroke-width="0.5" stroke-linecap="round"/>
<text x="64" y="377" font-size="9" text-anchor="start" font-weight="400" fill="#111111"><tspan x="64" dy="0">E11</tspan></text>
<text x="114" y="377" font-size="9" text-anchor="start" font-weight="400" fill="#111111"><tspan x="114" dy="0">Cabina e cavo mobile (morsettiera XC)</tspan></text>
<line x1="60" y1="381" x2="630" y2="381" stroke="#111111" stroke-width="0.5" stroke-linecap="round"/>
<text x="64" y="394" font-size="9" text-anchor="start" font-weight="400" fill="#111111"><tspan x="64" dy="0">E12</tspan></text>
<text x="114" y="394" font-size="9" text-anchor="start" font-weight="400" fill="#111111"><tspan x="114" dy="0">Porte (operatore, contatti, barriera)</tspan></text>
<line x1="60" y1="398" x2="630" y2="398" stroke="#111111" stroke-width="0.5" stroke-linecap="round"/>
<text x="64" y="411" font-size="9" text-anchor="start" font-weight="400" fill="#111111"><tspan x="64" dy="0">E13</tspan></text>
<text x="114" y="411" font-size="9" text-anchor="start" font-weight="400" fill="#111111"><tspan x="114" dy="0">Ispezione, pannello di emergenza e prove, bypass</tspan></text>
<line x1="60" y1="415" x2="630" y2="415" stroke="#111111" stroke-width="0.5" stroke-linecap="round"/>
<text x="64" y="428" font-size="9" text-anchor="start" font-weight="400" fill="#111111"><tspan x="64" dy="0">E14</tspan></text>
<text x="114" y="428" font-size="9" text-anchor="start" font-weight="400" fill="#111111"><tspan x="114" dy="0">Allarme EN 81-28, luce di emergenza e ARD</tspan></text>
<line x1="60" y1="432" x2="630" y2="432" stroke="#111111" stroke-width="0.5" stroke-linecap="round"/>
<text x="64" y="445" font-size="9" text-anchor="start" font-weight="400" fill="#111111"><tspan x="64" dy="0">E15</tspan></text>
<text x="114" y="445" font-size="9" text-anchor="start" font-weight="400" fill="#111111"><tspan x="114" dy="0">Rete: router 5G, gateway, access point, antenne</tspan></text>
<line x1="60" y1="449" x2="630" y2="449" stroke="#111111" stroke-width="0.5" stroke-linecap="round"/>
<text x="64" y="462" font-size="9" text-anchor="start" font-weight="400" fill="#111111"><tspan x="64" dy="0">E16</tspan></text>
<text x="114" y="462" font-size="9" text-anchor="start" font-weight="400" fill="#111111"><tspan x="114" dy="0">Elenco morsettiere X1…X6, XC</tspan></text>
<line x1="60" y1="466" x2="630" y2="466" stroke="#111111" stroke-width="0.5" stroke-linecap="round"/>
<text x="64" y="479" font-size="9" text-anchor="start" font-weight="400" fill="#111111"><tspan x="64" dy="0">E17</tspan></text>
<text x="114" y="479" font-size="9" text-anchor="start" font-weight="400" fill="#111111"><tspan x="114" dy="0">Lista cavi</tspan></text>
<line x1="60" y1="483" x2="630" y2="483" stroke="#111111" stroke-width="0.5" stroke-linecap="round"/>
<text x="64" y="496" font-size="9" text-anchor="start" font-weight="400" fill="#111111"><tspan x="64" dy="0">E18</tspan></text>
<text x="114" y="496" font-size="9" text-anchor="start" font-weight="400" fill="#111111"><tspan x="114" dy="0">Distinta materiali e dispositivi</tspan></text>
<rect x="60" y="160" width="570" height="340" rx="0" fill="none" stroke="#111111" stroke-width="0.9"/>
<text x="60" y="516" font-size="8" text-anchor="start" font-weight="400" fill="#4b5563"><tspan x="60" dy="0">Zone del foglio: colonne 1–16 in alto e in basso, righe A–H ai lati (riferimenti incrociati: «E04/C7»).</tspan></text>
<rect x="700" y="160" width="440" height="340" rx="0" fill="none" stroke="#111111" stroke-width="0.9" stroke-dasharray="8 3 2 3"/>
<text x="706" y="171" font-size="8.5" text-anchor="start" font-weight="700" fill="#111111"><tspan x="706" dy="0">Legenda dei segni grafici</tspan></text>
<rect x="720" y="190" width="100" height="64" rx="0" fill="#fff" stroke="#111111" stroke-width="1"/>
<text x="770" y="202" font-size="9.5" text-anchor="middle" font-weight="700" fill="#111111"><tspan x="770" dy="0">Apparecchio</tspan></text>
<text x="770" y="213" font-size="7" text-anchor="middle" font-weight="400" fill="#4b5563"><tspan x="770" dy="0">piedini a sinistra/destra</tspan></text>
<line x1="720" y1="227" x2="711" y2="227" stroke="#111111" stroke-width="0.9" stroke-linecap="round"/>
<text x="724" y="230" font-size="7.5" text-anchor="start" font-weight="400" fill="#111111"><tspan x="724" dy="0">1</tspan></text>
<line x1="720" y1="241" x2="711" y2="241" stroke="#111111" stroke-width="0.9" stroke-linecap="round"/>
<text x="724" y="244" font-size="7.5" text-anchor="start" font-weight="400" fill="#111111"><tspan x="724" dy="0">2</tspan></text>
<line x1="820" y1="227" x2="829" y2="227" stroke="#111111" stroke-width="0.9" stroke-linecap="round"/>
<text x="816" y="230" font-size="7.5" text-anchor="end" font-weight="400" fill="#111111"><tspan x="816" dy="0">3</tspan></text>
<line x1="820" y1="241" x2="829" y2="241" stroke="#111111" stroke-width="0.9" stroke-linecap="round"/>
<text x="816" y="244" font-size="7.5" text-anchor="end" font-weight="400" fill="#111111"><tspan x="816" dy="0">4</tspan></text>
<text x="840" y="210" font-size="8" text-anchor="start" font-weight="400" fill="#111111"><tspan x="840" dy="0">Apparecchio del quadro con designazione (-A1, -U1, -K10 …)</tspan></text>
<text x="770" y="256" font-size="10" text-anchor="middle" font-weight="700" fill="#111111"><tspan x="770" dy="0">-Xn</tspan></text>
<rect x="720" y="270" width="100" height="15" rx="0" fill="none" stroke="#111111" stroke-width="0.8"/>
<line x1="758" y1="270" x2="758" y2="285" stroke="#111111" stroke-width="0.6" stroke-linecap="round"/>
<text x="739" y="280.5" font-size="8" text-anchor="middle" font-weight="700" fill="#111111"><tspan x="739" dy="0">1</tspan></text>
<text x="762" y="280.5" font-size="7.5" text-anchor="start" font-weight="400" fill="#111111"><tspan x="762" dy="0">segnale</tspan></text>
<line x1="720" y1="277.5" x2="711" y2="277.5" stroke="#111111" stroke-width="0.9" stroke-linecap="round"/>
<line x1="820" y1="277.5" x2="829" y2="277.5" stroke="#111111" stroke-width="0.9" stroke-linecap="round"/>
<rect x="720" y="285" width="100" height="15" rx="0" fill="none" stroke="#111111" stroke-width="0.8"/>
<line x1="758" y1="285" x2="758" y2="300" stroke="#111111" stroke-width="0.6" stroke-linecap="round"/>
<text x="739" y="295.5" font-size="8" text-anchor="middle" font-weight="700" fill="#111111"><tspan x="739" dy="0">2</tspan></text>
<text x="762" y="295.5" font-size="7.5" text-anchor="start" font-weight="400" fill="#111111"><tspan x="762" dy="0">segnale</tspan></text>
<line x1="720" y1="292.5" x2="711" y2="292.5" stroke="#111111" stroke-width="0.9" stroke-linecap="round"/>
<line x1="820" y1="292.5" x2="829" y2="292.5" stroke="#111111" stroke-width="0.9" stroke-linecap="round"/>
<text x="840" y="285" font-size="8" text-anchor="start" font-weight="400" fill="#111111"><tspan x="840" dy="0">Morsettiera: sinistra = lato quadro, destra = lato campo</tspan></text>
<rect x="720" y="323" width="60" height="34" rx="0" fill="none" stroke="#111111" stroke-width="1.1"/>
<line x1="720" y1="330" x2="711" y2="330" stroke="#111111" stroke-width="0.9" stroke-linecap="round"/>
<text x="725" y="333" font-size="7.5" text-anchor="start" font-weight="400" fill="#111111"><tspan x="725" dy="0">IN</tspan></text>
<line x1="720" y1="350" x2="711" y2="350" stroke="#111111" stroke-width="0.9" stroke-linecap="round"/>
<text x="725" y="353" font-size="7.5" text-anchor="start" font-weight="400" fill="#111111"><tspan x="725" dy="0">OUT</tspan></text>
<text x="788" y="331" font-size="9.5" text-anchor="start" font-weight="700" fill="#111111"><tspan x="788" dy="0"></tspan></text>
<text x="840" y="342" font-size="8" text-anchor="start" font-weight="400" fill="#111111"><tspan x="840" dy="0">Apparecchio di campo allineato ai morsetti (titolo a destra)</tspan></text>
<line x1="720" y1="392" x2="810" y2="392" stroke="#111111" stroke-width="1" stroke-linecap="round"/>
<text x="765" y="389" font-size="7" text-anchor="middle" font-weight="400" fill="#111111"><tspan x="765" dy="0">401 BL</tspan></text>
<text x="765" y="400" font-size="6" text-anchor="middle" font-weight="400" fill="#4b5563" font-style="italic"><tspan x="765" dy="0">W201</tspan></text>
<text x="840" y="395" font-size="8" text-anchor="start" font-weight="400" fill="#111111"><tspan x="840" dy="0">Filo: numero + colore; sigla cavo sotto (corsivo)</tspan></text>
<line x1="720" y1="425" x2="770" y2="425" stroke="#111111" stroke-width="1" stroke-linecap="round"/>
<polyline points="770,422 775,425 770,428" fill="#111" stroke="#111" stroke-width="1" stroke-linejoin="round" stroke-linecap="round"/>
<text x="780" y="428" font-size="7.5" text-anchor="start" font-weight="400" fill="#111111"><tspan x="780" dy="0">→ E06 -K10:A1</tspan></text>
<text x="900" y="428" font-size="8" text-anchor="start" font-weight="400" fill="#111111"><tspan x="900" dy="0">Rimando ad altro foglio (destinazione)</tspan></text>
<circle cx="725" cy="458" r="3.4" fill="#fff" stroke="#111111" stroke-width="1"/>
<text x="740" y="461" font-size="8" text-anchor="start" font-weight="400" fill="#111111"><tspan x="740" dy="0">Morsetto / punto di giunzione (●)</tspan></text>
<circle cx="950" cy="458" r="2.6" fill="#111111"/>
<rect x="1000" y="450" width="40" height="16" rx="0" fill="none" stroke="#111111" stroke-width="1" stroke-dasharray="8 3 2 3"/>
<text x="1046" y="462" font-size="8" text-anchor="start" font-weight="400" fill="#111111"><tspan x="1046" dy="0">Area funzionale</tspan></text>
<rect x="1160" y="160" width="380" height="200" rx="0" fill="none" stroke="#111111" stroke-width="0.9" stroke-dasharray="8 3 2 3"/>
<text x="1166" y="171" font-size="8.5" text-anchor="start" font-weight="700" fill="#111111"><tspan x="1166" dy="0">Colori dei conduttori (da verificare su EN 60204-1)</tspan></text>
<rect x="1172" y="190" width="355" height="16" rx="0" fill="#e5e7eb" stroke="#111111" stroke-width="0.8"/>
<text x="1176" y="202" font-size="8.5" text-anchor="start" font-weight="700" fill="#111111"><tspan x="1176" dy="0">Sigla</tspan></text>
<text x="1221" y="202" font-size="8.5" text-anchor="start" font-weight="700" fill="#111111"><tspan x="1221" dy="0">Colore</tspan></text>
<line x1="1217" y1="190" x2="1217" y2="334" stroke="#111111" stroke-width="0.6" stroke-linecap="round"/>
<text x="1311" y="202" font-size="8.5" text-anchor="start" font-weight="700" fill="#111111"><tspan x="1311" dy="0">Uso</tspan></text>
<line x1="1307" y1="190" x2="1307" y2="334" stroke="#111111" stroke-width="0.6" stroke-linecap="round"/>
<line x1="1172" y1="206" x2="1527" y2="206" stroke="#111111" stroke-width="0.5" stroke-linecap="round"/>
<text x="1176" y="218" font-size="8.5" text-anchor="start" font-weight="400" fill="#111111"><tspan x="1176" dy="0">NE</tspan></text>
<text x="1221" y="218" font-size="8.5" text-anchor="start" font-weight="400" fill="#111111"><tspan x="1221" dy="0">nero</tspan></text>
<text x="1311" y="218" font-size="8.5" text-anchor="start" font-weight="400" fill="#111111"><tspan x="1311" dy="0">potenza c.a. e c.c.</tspan></text>
<line x1="1172" y1="222" x2="1527" y2="222" stroke="#111111" stroke-width="0.5" stroke-linecap="round"/>
<text x="1176" y="234" font-size="8.5" text-anchor="start" font-weight="400" fill="#111111"><tspan x="1176" dy="0">RS</tspan></text>
<text x="1221" y="234" font-size="8.5" text-anchor="start" font-weight="400" fill="#111111"><tspan x="1221" dy="0">rosso</tspan></text>
<text x="1311" y="234" font-size="8.5" text-anchor="start" font-weight="400" fill="#111111"><tspan x="1311" dy="0">comando c.a.</tspan></text>
<line x1="1172" y1="238" x2="1527" y2="238" stroke="#111111" stroke-width="0.5" stroke-linecap="round"/>
<text x="1176" y="250" font-size="8.5" text-anchor="start" font-weight="400" fill="#111111"><tspan x="1176" dy="0">BL</tspan></text>
<text x="1221" y="250" font-size="8.5" text-anchor="start" font-weight="400" fill="#111111"><tspan x="1221" dy="0">blu</tspan></text>
<text x="1311" y="250" font-size="8.5" text-anchor="start" font-weight="400" fill="#111111"><tspan x="1311" dy="0">comando c.c. (24 V, 48 V)</tspan></text>
<line x1="1172" y1="254" x2="1527" y2="254" stroke="#111111" stroke-width="0.5" stroke-linecap="round"/>
<text x="1176" y="266" font-size="8.5" text-anchor="start" font-weight="400" fill="#111111"><tspan x="1176" dy="0">AR</tspan></text>
<text x="1221" y="266" font-size="8.5" text-anchor="start" font-weight="400" fill="#111111"><tspan x="1221" dy="0">arancio</tspan></text>
<text x="1311" y="266" font-size="8.5" text-anchor="start" font-weight="400" fill="#111111"><tspan x="1311" dy="0">interblocco da fonte esterna</tspan></text>
<line x1="1172" y1="270" x2="1527" y2="270" stroke="#111111" stroke-width="0.5" stroke-linecap="round"/>
<text x="1176" y="282" font-size="8.5" text-anchor="start" font-weight="400" fill="#111111"><tspan x="1176" dy="0">AZ</tspan></text>
<text x="1221" y="282" font-size="8.5" text-anchor="start" font-weight="400" fill="#111111"><tspan x="1221" dy="0">azzurro</tspan></text>
<text x="1311" y="282" font-size="8.5" text-anchor="start" font-weight="400" fill="#111111"><tspan x="1311" dy="0">neutro</tspan></text>
<line x1="1172" y1="286" x2="1527" y2="286" stroke="#111111" stroke-width="0.5" stroke-linecap="round"/>
<text x="1176" y="298" font-size="8.5" text-anchor="start" font-weight="400" fill="#111111"><tspan x="1176" dy="0">GV</tspan></text>
<text x="1221" y="298" font-size="8.5" text-anchor="start" font-weight="400" fill="#111111"><tspan x="1221" dy="0">giallo/verde</tspan></text>
<text x="1311" y="298" font-size="8.5" text-anchor="start" font-weight="400" fill="#111111"><tspan x="1311" dy="0">PE</tspan></text>
<line x1="1172" y1="302" x2="1527" y2="302" stroke="#111111" stroke-width="0.5" stroke-linecap="round"/>
<text x="1176" y="314" font-size="8.5" text-anchor="start" font-weight="400" fill="#111111"><tspan x="1176" dy="0">SC</tspan></text>
<text x="1221" y="314" font-size="8.5" text-anchor="start" font-weight="400" fill="#111111"><tspan x="1221" dy="0">schermo</tspan></text>
<text x="1311" y="314" font-size="8.5" text-anchor="start" font-weight="400" fill="#111111"><tspan x="1311" dy="0">calza/schermo</tspan></text>
<line x1="1172" y1="318" x2="1527" y2="318" stroke="#111111" stroke-width="0.5" stroke-linecap="round"/>
<text x="1176" y="330" font-size="8.5" text-anchor="start" font-weight="400" fill="#111111"><tspan x="1176" dy="0">NUM</tspan></text>
<text x="1221" y="330" font-size="8.5" text-anchor="start" font-weight="400" fill="#111111"><tspan x="1221" dy="0">numerato</tspan></text>
<text x="1311" y="330" font-size="8.5" text-anchor="start" font-weight="400" fill="#111111"><tspan x="1311" dy="0">cavo mobile (conduttori numerati)</tspan></text>
<rect x="1172" y="190" width="355" height="144" rx="0" fill="none" stroke="#111111" stroke-width="0.9"/>
<rect x="1160" y="380" width="380" height="400" rx="0" fill="none" stroke="#111111" stroke-width="0.9" stroke-dasharray="8 3 2 3"/>
<text x="1166" y="391" font-size="8.5" text-anchor="start" font-weight="700" fill="#111111"><tspan x="1166" dy="0">Designazioni (EN 81346) e numeri di filo</tspan></text>
<rect x="1172" y="410" width="365" height="16" rx="0" fill="#e5e7eb" stroke="#111111" stroke-width="0.8"/>
<text x="1176" y="422" font-size="8.5" text-anchor="start" font-weight="700" fill="#111111"><tspan x="1176" dy="0">Sigla</tspan></text>
<text x="1296" y="422" font-size="8.5" text-anchor="start" font-weight="700" fill="#111111"><tspan x="1296" dy="0">Significato</tspan></text>
<line x1="1292" y1="410" x2="1292" y2="538" stroke="#111111" stroke-width="0.6" stroke-linecap="round"/>
<line x1="1172" y1="426" x2="1537" y2="426" stroke="#111111" stroke-width="0.5" stroke-linecap="round"/>
<text x="1176" y="438" font-size="8" text-anchor="start" font-weight="400" fill="#111111"><tspan x="1176" dy="0">-QS / -QF / -QR</tspan></text>
<text x="1296" y="438" font-size="8" text-anchor="start" font-weight="400" fill="#111111"><tspan x="1296" dy="0">sezionatore / magnetotermico / differenziale</tspan></text>
<line x1="1172" y1="442" x2="1537" y2="442" stroke="#111111" stroke-width="0.5" stroke-linecap="round"/>
<text x="1176" y="454" font-size="8" text-anchor="start" font-weight="400" fill="#111111"><tspan x="1176" dy="0">-KM / -KB / -K / -KA</tspan></text>
<text x="1296" y="454" font-size="8" text-anchor="start" font-weight="400" fill="#111111"><tspan x="1296" dy="0">contattori / freno / relè / relè ausiliari</tspan></text>
<line x1="1172" y1="458" x2="1537" y2="458" stroke="#111111" stroke-width="0.5" stroke-linecap="round"/>
<text x="1176" y="470" font-size="8" text-anchor="start" font-weight="400" fill="#111111"><tspan x="1176" dy="0">-G / -F / -T</tspan></text>
<text x="1296" y="470" font-size="8" text-anchor="start" font-weight="400" fill="#111111"><tspan x="1296" dy="0">alimentatori / fusibili / trasformatori</tspan></text>
<line x1="1172" y1="474" x2="1537" y2="474" stroke="#111111" stroke-width="0.5" stroke-linecap="round"/>
<text x="1176" y="486" font-size="8" text-anchor="start" font-weight="400" fill="#111111"><tspan x="1176" dy="0">-U / -M / -B / -Y</tspan></text>
<text x="1296" y="486" font-size="8" text-anchor="start" font-weight="400" fill="#111111"><tspan x="1296" dy="0">inverter / motori / sensori / bobine</tspan></text>
<line x1="1172" y1="490" x2="1537" y2="490" stroke="#111111" stroke-width="0.5" stroke-linecap="round"/>
<text x="1176" y="502" font-size="8" text-anchor="start" font-weight="400" fill="#111111"><tspan x="1176" dy="0">-S / -H</tspan></text>
<text x="1296" y="502" font-size="8" text-anchor="start" font-weight="400" fill="#111111"><tspan x="1296" dy="0">interruttori, finecorsa / segnalazioni</tspan></text>
<line x1="1172" y1="506" x2="1537" y2="506" stroke="#111111" stroke-width="0.5" stroke-linecap="round"/>
<text x="1176" y="518" font-size="8" text-anchor="start" font-weight="400" fill="#111111"><tspan x="1176" dy="0">-A1…-A9</tspan></text>
<text x="1296" y="518" font-size="8" text-anchor="start" font-weight="400" fill="#111111"><tspan x="1296" dy="0">PLC, I/O, gateway, router, modulo CE, comunicatore, -A7, -A9</tspan></text>
<line x1="1172" y1="522" x2="1537" y2="522" stroke="#111111" stroke-width="0.5" stroke-linecap="round"/>
<text x="1176" y="534" font-size="8" text-anchor="start" font-weight="400" fill="#111111"><tspan x="1176" dy="0">-X / XC / XP</tspan></text>
<text x="1296" y="534" font-size="8" text-anchor="start" font-weight="400" fill="#111111"><tspan x="1296" dy="0">morsettiere / cabina / nodi di piano</tspan></text>
<rect x="1172" y="410" width="365" height="128" rx="0" fill="none" stroke="#111111" stroke-width="0.9"/>
<text x="1172" y="560" font-size="8.5" text-anchor="start" font-weight="700" fill="#111111"><tspan x="1172" dy="0">Intervalli dei numeri di filo per foglio:</tspan></text>
<text x="1172" y="576" font-size="8" text-anchor="start" font-weight="400" fill="#111111"><tspan x="1172" dy="0">E01 100–199   ·   E02 200–299   ·   E03 300–399</tspan></text>
<text x="1172" y="590" font-size="8" text-anchor="start" font-weight="400" fill="#111111"><tspan x="1172" dy="0">E04 400–449   ·   E05 450–499   ·   E06 500–599</tspan></text>
<text x="1172" y="604" font-size="8" text-anchor="start" font-weight="400" fill="#111111"><tspan x="1172" dy="0">E07 600–699   ·   E08 700–799   ·   E09 800–849</tspan></text>
<text x="1172" y="618" font-size="8" text-anchor="start" font-weight="400" fill="#111111"><tspan x="1172" dy="0">E10 850–899   ·   E11 900–949   ·   E12 950–999</tspan></text>
<text x="1172" y="632" font-size="8" text-anchor="start" font-weight="400" fill="#111111"><tspan x="1172" dy="0">E13 1000–1099   ·   E14 1100–1199</tspan></text>
<rect x="60" y="590" width="1080" height="190" rx="0" fill="none" stroke="#111111" stroke-width="0.9" stroke-dasharray="8 3 2 3"/>
<text x="66" y="601" font-size="8.5" text-anchor="start" font-weight="700" fill="#111111"><tspan x="66" dy="0">Ipotesi e avvertenze</tspan></text>
<text x="72" y="616" font-size="8.5" text-anchor="start" font-weight="400" fill="#111111"><tspan x="72" dy="0">Caso di riferimento: motore 7,5 kW su argano geared, inverter 11 kW / 24 A anello chiuso, 12 fermate (24 con +12 nodi di piano). Tutti i valori sono di esempio.</tspan></text>
<text x="72" y="638" font-size="8.5" text-anchor="start" font-weight="400" fill="#111111"><tspan x="72" dy="0">Sezioni, correnti, curve di sgancio, potere di interruzione, lunghezze e cadute di tensione vanno ricalcolati dal progettista con i dati di targa (EN 60204-1).</tspan></text>
<text x="72" y="660" font-size="8.5" text-anchor="start" font-weight="400" fill="#111111"><tspan x="72" dy="0">I morsetti dei costruttori (inverter, PLC, comunicatore, modulo CE, operatore porte) sono indicati con nomi generici: vanno sostituiti con quelli del componente scelto.</tspan></text>
<text x="72" y="682" font-size="8.5" text-anchor="start" font-weight="400" fill="#111111"><tspan x="72" dy="0">La catena di sicurezza è cablata (contatti ad apertura positiva); il PLC la legge solo tramite -A7 (EN 81-20:2020 5.11.2.1.2). Il PLC non fa parte della catena.</tspan></text>
<text x="72" y="704" font-size="8.5" text-anchor="start" font-weight="400" fill="#111111"><tspan x="72" dy="0">Moduli certificati (bypass porte, UCM, eventuale STO SIL 3) vanno acquistati con certificato di esame di tipo e installati secondo le loro istruzioni.</tspan></text>
<text x="72" y="726" font-size="8.5" text-anchor="start" font-weight="400" fill="#111111"><tspan x="72" dy="0">Questi fogli sono schemi di riferimento per lo studio di fattibilità: non sono un esecutivo, non valgono come dichiarazione di conformità.</tspan></text>
<text x="72" y="748" font-size="8.5" text-anchor="start" font-weight="400" fill="#111111"><tspan x="72" dy="0">Norme citate solo con numero di punto e valore; il testo delle norme (UNI/EN/ISO) non è riprodotto.</tspan></text>
</g>

<g font-family="DejaVu Sans, Arial, sans-serif" fill="#111111">
<rect x="845" y="1022" width="720" height="78" fill="#fff" stroke="#111111" stroke-width="1.2"/>
<line x1="845" y1="1044" x2="1565" y2="1044" stroke="#111111" stroke-width="0.7"/>
<line x1="1315" y1="1022" x2="1315" y2="1100" stroke="#111111" stroke-width="0.7"/>
<line x1="1315" y1="1062" x2="1565" y2="1062" stroke="#111111" stroke-width="0.7"/>
<line x1="1435" y1="1044" x2="1435" y2="1062" stroke="#111111" stroke-width="0.7"/>
<text x="853" y="1037" font-size="9.5" font-weight="700">Carbon Stealth VCC · Quadro di manovra a PLC per ascensori (esempio di riferimento)</text>
<text x="853" y="1065" font-size="12.5" font-weight="700">Copertina, indice, legenda e convenzioni</text>
<text x="853" y="1080" font-size="9" fill="#4b5563">Schemi di collegamento — serie E00…E18</text>
<text x="853" y="1093" font-size="7.5" fill="#4b5563">EN 81-20:2020 · EN 60204-1 · IEC 60617 · EN 81346 — valori di esempio, da verificare dal progettista; non per costruzione</text>
<text x="1321" y="1037" font-size="9" font-weight="700">Foglio E00 / E18</text>
<text x="1321" y="1057" font-size="9">Rev. A</text>
<text x="1441" y="1057" font-size="9">2026-10-07</text>
<text x="1321" y="1076" font-size="8" fill="#4b5563">Disegnato: Carbon Stealth</text>
<text x="1321" y="1090" font-size="8" fill="#4b5563">Verificato: — (progettista)</text>
</g>
</svg>
