0
SECTION
2
TABLES
0
TABLE
2
LAYER
70
6
0
LAYER
2
POTENZA
70
0
62
1
6
CONTINUOUS
0
LAYER
2
SICUREZZA
70
0
62
2
6
CONTINUOUS
0
LAYER
2
COMP
70
0
62
4
6
CONTINUOUS
0
LAYER
2
TESTO
70
0
62
7
6
CONTINUOUS
0
LAYER
2
CARTIGLIO
70
0
62
3
6
CONTINUOUS
0
LAYER
2
CORNICE
70
0
62
7
6
CONTINUOUS
0
ENDTAB
0
ENDSEC
0
SECTION
2
ENTITIES
0
LINE
8
CORNICE
10
0
20
0
30
0
11
297
21
0
31
0
0
LINE
8
CORNICE
10
297
20
0
30
0
11
297
21
210
31
0
0
LINE
8
CORNICE
10
297
20
210
30
0
11
0
21
210
31
0
0
LINE
8
CORNICE
10
0
20
210
30
0
11
0
21
0
31
0
0
TEXT
8
TESTO
10
8
20
200
30
0
40
4.0
1
CATENA DI SICUREZZA (serie) - EN 81-20 5.11 - apertura positiva
0
LINE
8
SICUREZZA
10
14
20
30
30
0
11
14
21
185
31
0
0
TEXT
8
TESTO
10
10
20
188
30
0
40
2.5
1
+110V~ (o 24Vdc) sicurezza
0
LINE
8
SICUREZZA
10
20
20
176
30
0
11
32
21
176
31
0
0
LINE
8
SICUREZZA
10
32
20
176
30
0
11
32
21
184
31
0
0
LINE
8
SICUREZZA
10
32
20
184
30
0
11
20
21
184
31
0
0
LINE
8
SICUREZZA
10
20
20
184
30
0
11
20
21
176
31
0
0
LINE
8
SICUREZZA
10
22
20
178
30
0
11
30
21
182
31
0
0
LINE
8
SICUREZZA
10
14
20
180
30
0
11
20
21
180
31
0
0
LINE
8
SICUREZZA
10
32
20
180
30
0
11
200
21
180
31
0
0
TEXT
8
TESTO
10
40
20
181
30
0
40
2.5
1
-S1  Arresto emergenza FOSSA
0
LINE
8
SICUREZZA
10
20
20
163
30
0
11
32
21
163
31
0
0
LINE
8
SICUREZZA
10
32
20
163
30
0
11
32
21
171
31
0
0
LINE
8
SICUREZZA
10
32
20
171
30
0
11
20
21
171
31
0
0
LINE
8
SICUREZZA
10
20
20
171
30
0
11
20
21
163
31
0
0
LINE
8
SICUREZZA
10
22
20
165
30
0
11
30
21
169
31
0
0
LINE
8
SICUREZZA
10
14
20
167
30
0
11
20
21
167
31
0
0
LINE
8
SICUREZZA
10
32
20
167
30
0
11
200
21
167
31
0
0
TEXT
8
TESTO
10
40
20
168
30
0
40
2.5
1
-S2  Arresto emergenza TETTO CABINA
0
LINE
8
SICUREZZA
10
20
20
150
30
0
11
32
21
150
31
0
0
LINE
8
SICUREZZA
10
32
20
150
30
0
11
32
21
158
31
0
0
LINE
8
SICUREZZA
10
32
20
158
30
0
11
20
21
158
31
0
0
LINE
8
SICUREZZA
10
20
20
158
30
0
11
20
21
150
31
0
0
LINE
8
SICUREZZA
10
22
20
152
30
0
11
30
21
156
31
0
0
LINE
8
SICUREZZA
10
14
20
154
30
0
11
20
21
154
31
0
0
LINE
8
SICUREZZA
10
32
20
154
30
0
11
200
21
154
31
0
0
TEXT
8
TESTO
10
40
20
155
30
0
40
2.5
1
-S3  Commutatore ISPEZIONE/REVISIONE
0
LINE
8
SICUREZZA
10
20
20
137
30
0
11
32
21
137
31
0
0
LINE
8
SICUREZZA
10
32
20
137
30
0
11
32
21
145
31
0
0
LINE
8
SICUREZZA
10
32
20
145
30
0
11
20
21
145
31
0
0
LINE
8
SICUREZZA
10
20
20
145
30
0
11
20
21
137
31
0
0
LINE
8
SICUREZZA
10
22
20
139
30
0
11
30
21
143
31
0
0
LINE
8
SICUREZZA
10
14
20
141
30
0
11
20
21
141
31
0
0
LINE
8
SICUREZZA
10
32
20
141
30
0
11
200
21
141
31
0
0
TEXT
8
TESTO
10
40
20
142
30
0
40
2.5
1
-S4  Extracorsa SUPERIORE
0
LINE
8
SICUREZZA
10
20
20
124
30
0
11
32
21
124
31
0
0
LINE
8
SICUREZZA
10
32
20
124
30
0
11
32
21
132
31
0
0
LINE
8
SICUREZZA
10
32
20
132
30
0
11
20
21
132
31
0
0
LINE
8
SICUREZZA
10
20
20
132
30
0
11
20
21
124
31
0
0
LINE
8
SICUREZZA
10
22
20
126
30
0
11
30
21
130
31
0
0
LINE
8
SICUREZZA
10
14
20
128
30
0
11
20
21
128
31
0
0
LINE
8
SICUREZZA
10
32
20
128
30
0
11
200
21
128
31
0
0
TEXT
8
TESTO
10
40
20
129
30
0
40
2.5
1
-S5  Extracorsa INFERIORE
0
LINE
8
SICUREZZA
10
20
20
111
30
0
11
32
21
111
31
0
0
LINE
8
SICUREZZA
10
32
20
111
30
0
11
32
21
119
31
0
0
LINE
8
SICUREZZA
10
32
20
119
30
0
11
20
21
119
31
0
0
LINE
8
SICUREZZA
10
20
20
119
30
0
11
20
21
111
31
0
0
LINE
8
SICUREZZA
10
22
20
113
30
0
11
30
21
117
31
0
0
LINE
8
SICUREZZA
10
14
20
115
30
0
11
20
21
115
31
0
0
LINE
8
SICUREZZA
10
32
20
115
30
0
11
200
21
115
31
0
0
TEXT
8
TESTO
10
40
20
116
30
0
40
2.5
1
-S6  Tensione fune LIMITATORE
0
LINE
8
SICUREZZA
10
20
20
98
30
0
11
32
21
98
31
0
0
LINE
8
SICUREZZA
10
32
20
98
30
0
11
32
21
106
31
0
0
LINE
8
SICUREZZA
10
32
20
106
30
0
11
20
21
106
31
0
0
LINE
8
SICUREZZA
10
20
20
106
30
0
11
20
21
98
31
0
0
LINE
8
SICUREZZA
10
22
20
100
30
0
11
30
21
104
31
0
0
LINE
8
SICUREZZA
10
14
20
102
30
0
11
20
21
102
31
0
0
LINE
8
SICUREZZA
10
32
20
102
30
0
11
200
21
102
31
0
0
TEXT
8
TESTO
10
40
20
103
30
0
40
2.5
1
-S7  Intervento LIMITATORE (overspeed)
0
LINE
8
SICUREZZA
10
20
20
85
30
0
11
32
21
85
31
0
0
LINE
8
SICUREZZA
10
32
20
85
30
0
11
32
21
93
31
0
0
LINE
8
SICUREZZA
10
32
20
93
30
0
11
20
21
93
31
0
0
LINE
8
SICUREZZA
10
20
20
93
30
0
11
20
21
85
31
0
0
LINE
8
SICUREZZA
10
22
20
87
30
0
11
30
21
91
31
0
0
LINE
8
SICUREZZA
10
14
20
89
30
0
11
20
21
89
31
0
0
LINE
8
SICUREZZA
10
32
20
89
30
0
11
200
21
89
31
0
0
TEXT
8
TESTO
10
40
20
90
30
0
40
2.5
1
-S8  PARACADUTE (geared) / valvola blocco (idr.)
0
LINE
8
SICUREZZA
10
20
20
72
30
0
11
32
21
72
31
0
0
LINE
8
SICUREZZA
10
32
20
72
30
0
11
32
21
80
31
0
0
LINE
8
SICUREZZA
10
32
20
80
30
0
11
20
21
80
31
0
0
LINE
8
SICUREZZA
10
20
20
80
30
0
11
20
21
72
31
0
0
LINE
8
SICUREZZA
10
22
20
74
30
0
11
30
21
78
31
0
0
LINE
8
SICUREZZA
10
14
20
76
30
0
11
20
21
76
31
0
0
LINE
8
SICUREZZA
10
32
20
76
30
0
11
200
21
76
31
0
0
TEXT
8
TESTO
10
40
20
77
30
0
40
2.5
1
-S9  Ammortizzatori / fine corsa fossa
0
LINE
8
SICUREZZA
10
20
20
59
30
0
11
32
21
59
31
0
0
LINE
8
SICUREZZA
10
32
20
59
30
0
11
32
21
67
31
0
0
LINE
8
SICUREZZA
10
32
20
67
30
0
11
20
21
67
31
0
0
LINE
8
SICUREZZA
10
20
20
67
30
0
11
20
21
59
31
0
0
LINE
8
SICUREZZA
10
22
20
61
30
0
11
30
21
65
31
0
0
LINE
8
SICUREZZA
10
14
20
63
30
0
11
20
21
63
31
0
0
LINE
8
SICUREZZA
10
32
20
63
30
0
11
200
21
63
31
0
0
TEXT
8
TESTO
10
40
20
64
30
0
40
2.5
1
-S11 PORTE DI PIANO (serrature in serie)
0
LINE
8
SICUREZZA
10
20
20
46
30
0
11
32
21
46
31
0
0
LINE
8
SICUREZZA
10
32
20
46
30
0
11
32
21
54
31
0
0
LINE
8
SICUREZZA
10
32
20
54
30
0
11
20
21
54
31
0
0
LINE
8
SICUREZZA
10
20
20
54
30
0
11
20
21
46
31
0
0
LINE
8
SICUREZZA
10
22
20
48
30
0
11
30
21
52
31
0
0
LINE
8
SICUREZZA
10
14
20
50
30
0
11
20
21
50
31
0
0
LINE
8
SICUREZZA
10
32
20
50
30
0
11
200
21
50
31
0
0
TEXT
8
TESTO
10
40
20
51
30
0
40
2.5
1
-S12 Contatto PORTA DI CABINA
0
LINE
8
SICUREZZA
10
200
20
30
30
0
11
200
21
180
31
0
0
LINE
8
SICUREZZA
10
200
20
30
30
0
11
215
21
30
31
0
0
LINE
8
COMP
10
215
20
18
30
0
11
275
21
18
31
0
0
LINE
8
COMP
10
275
20
18
30
0
11
275
21
44
31
0
0
LINE
8
COMP
10
275
20
44
30
0
11
215
21
44
31
0
0
LINE
8
COMP
10
215
20
44
30
0
11
215
21
18
31
0
0
TEXT
8
TESTO
10
218
20
38
30
0
40
2.5
1
RELE' DI SICUREZZA -KA-SIC
0
TEXT
8
TESTO
10
218
20
32
30
0
40
2.0
1
contatti guidati, auto-monitor.
0
TEXT
8
TESTO
10
218
20
26
30
0
40
2.0
1
certificato esame UE del tipo
0
TEXT
8
TESTO
10
218
20
21
30
0
40
2.0
1
Pizzato / Pilz / Schmersal
0
LINE
8
POTENZA
10
275
20
38
30
0
11
290
21
38
31
0
0
TEXT
8
TESTO
10
276
20
40
30
0
40
2.0
1
-> bobine -KM marcia+freno
0
LINE
8
COMP
10
275
20
24
30
0
11
290
21
24
31
0
0
TEXT
8
TESTO
10
276
20
26
30
0
40
2.0
1
-> feedback PLC (lettura)
0
LINE
8
SICUREZZA
10
14
20
30
30
0
11
200
21
30
31
0
0
TEXT
8
TESTO
10
10
20
24
30
0
40
2.5
1
- ritorno sicurezza
0
LINE
8
CARTIGLIO
10
178
20
2
30
0
11
288
21
2
31
0
0
LINE
8
CARTIGLIO
10
288
20
2
30
0
11
288
21
30
31
0
0
LINE
8
CARTIGLIO
10
288
20
30
30
0
11
178
21
30
31
0
0
LINE
8
CARTIGLIO
10
178
20
30
30
0
11
178
21
2
31
0
0
LINE
8
CARTIGLIO
10
178
20
20
30
0
11
288
21
20
31
0
0
LINE
8
CARTIGLIO
10
258
20
2
30
0
11
258
21
30
31
0
0
TEXT
8
CARTIGLIO
10
181
20
23
30
0
40
3.0
1
CATENA SICUREZZA
0
TEXT
8
TESTO
10
181
20
13
30
0
40
2.2
1
EN 81-20/50 - UNI 10411
0
TEXT
8
TESTO
10
181
20
6
30
0
40
2.2
1
Concept didattico - Rev. A
0
TEXT
8
TESTO
10
261
20
23
30
0
40
2.5
1
Foglio 3/4
0
TEXT
8
TESTO
10
261
20
13
30
0
40
2.2
1
Scala: -
0
TEXT
8
TESTO
10
261
20
6
30
0
40
2.2
1
geared/idraulico
0
ENDSEC
0
EOF
