0
SECTION
2
TABLES
0
TABLE
2
LAYER
70
6
0
LAYER
2
POTENZA
70
0
62
1
6
CONTINUOUS
0
LAYER
2
SICUREZZA
70
0
62
2
6
CONTINUOUS
0
LAYER
2
COMP
70
0
62
4
6
CONTINUOUS
0
LAYER
2
TESTO
70
0
62
7
6
CONTINUOUS
0
LAYER
2
CARTIGLIO
70
0
62
3
6
CONTINUOUS
0
LAYER
2
CORNICE
70
0
62
7
6
CONTINUOUS
0
ENDTAB
0
ENDSEC
0
SECTION
2
ENTITIES
0
LINE
8
CORNICE
10
0
20
0
30
0
11
297
21
0
31
0
0
LINE
8
CORNICE
10
297
20
0
30
0
11
297
21
210
31
0
0
LINE
8
CORNICE
10
297
20
210
30
0
11
0
21
210
31
0
0
LINE
8
CORNICE
10
0
20
210
30
0
11
0
21
0
31
0
0
TEXT
8
TESTO
10
8
20
200
30
0
40
4.0
1
SCHEMA I/O PLC - LOGICA DI MANOVRA (geared / idraulico)
0
LINE
8
COMP
10
120
20
40
30
0
11
180
21
40
31
0
0
LINE
8
COMP
10
180
20
40
30
0
11
180
21
190
31
0
0
LINE
8
COMP
10
180
20
190
30
0
11
120
21
190
31
0
0
LINE
8
COMP
10
120
20
190
30
0
11
120
21
40
31
0
0
TEXT
8
TESTO
10
128
20
182
30
0
40
3.0
1
PLC CPU 1214C
0
TEXT
8
TESTO
10
124
20
175
30
0
40
2.2
1
DI14 / DQ10 + espansione
0
TEXT
8
TESTO
10
8
20
178
30
0
40
2.2
1
-KA-SIC stato catena sicurezza
0
TEXT
8
TESTO
10
8
20
167
30
0
40
2.2
1
-S-REV revisione
0
TEXT
8
TESTO
10
8
20
156
30
0
40
2.2
1
-SB-REVU/D revisione su/giu
0
TEXT
8
TESTO
10
8
20
145
30
0
40
2.2
1
-B-ZP1/ZP2 zona porta (ridond.)
0
TEXT
8
TESTO
10
8
20
134
30
0
40
2.2
1
-B-RALL-U/D rallentamento
0
TEXT
8
TESTO
10
8
20
123
30
0
40
2.2
1
-B-PIANI conteggio/encoder
0
TEXT
8
TESTO
10
8
20
112
30
0
40
2.2
1
-S-SOVR sovraccarico
0
TEXT
8
TESTO
10
8
20
101
30
0
40
2.2
1
-S-FOTO fotocellula/costa
0
TEXT
8
TESTO
10
8
20
90
30
0
40
2.2
1
-S-FAP/-S-FCP finecorsa porte
0
TEXT
8
TESTO
10
8
20
79
30
0
40
2.2
1
-F-MOT termica/termostato
0
TEXT
8
TESTO
10
8
20
68
30
0
40
2.2
1
-S-MINP pressione min (idr.)
0
TEXT
8
TESTO
10
8
20
57
30
0
40
2.2
1
-S-FRE controllo freno (geared)
0
TEXT
8
TESTO
10
8
20
46
30
0
40
2.2
1
-SB-CAB/-SB-PIA chiamate
0
TEXT
8
TESTO
10
190
20
178
30
0
40
2.2
1
-KM-S/-KM-D salita/discesa
0
TEXT
8
TESTO
10
190
20
167
30
0
40
2.2
1
-KM-V/-KM-L velocita' (geared)
0
TEXT
8
TESTO
10
190
20
156
30
0
40
2.2
1
-KM-FRE freno (geared)
0
TEXT
8
TESTO
10
190
20
145
30
0
40
2.2
1
-KM-P pompa (idr.)
0
TEXT
8
TESTO
10
190
20
134
30
0
40
2.2
1
-KM-Y/-KM-D stella/triangolo
0
TEXT
8
TESTO
10
190
20
123
30
0
40
2.2
1
-EV-S/-EV-D valvole (idr.)
0
TEXT
8
TESTO
10
190
20
112
30
0
40
2.2
1
-KM-APRE/-KM-CHIU porte
0
TEXT
8
TESTO
10
190
20
101
30
0
40
2.2
1
-H-DIR frecce direzione
0
TEXT
8
TESTO
10
190
20
90
30
0
40
2.2
1
-H-POS display posizione
0
TEXT
8
TESTO
10
190
20
79
30
0
40
2.2
1
-H-GONG gong arrivo
0
TEXT
8
TESTO
10
190
20
68
30
0
40
2.2
1
-H-OOS fuori servizio/allarme
0
LINE
8
COMP
10
120
20
18
30
0
11
180
21
18
31
0
0
LINE
8
COMP
10
180
20
18
30
0
11
180
21
36
31
0
0
LINE
8
COMP
10
180
20
36
30
0
11
120
21
36
31
0
0
LINE
8
COMP
10
120
20
36
30
0
11
120
21
18
31
0
0
TEXT
8
TESTO
10
124
20
30
30
0
40
2.5
1
COMUNICAZIONE
0
TEXT
8
TESTO
10
124
20
25
30
0
40
2.0
1
RS485 Modbus -> ESP32 WiFi
0
TEXT
8
TESTO
10
124
20
21
30
0
40
2.0
1
CANbus -> COP/LOP
0
LINE
8
COMP
10
190
20
18
30
0
11
270
21
18
31
0
0
LINE
8
COMP
10
270
20
18
30
0
11
270
21
36
31
0
0
LINE
8
COMP
10
270
20
36
30
0
11
190
21
36
31
0
0
LINE
8
COMP
10
190
20
36
30
0
11
190
21
18
31
0
0
TEXT
8
TESTO
10
194
20
30
30
0
40
2.5
1
-A5 Modulo WiFi ESP32
0
TEXT
8
TESTO
10
194
20
25
30
0
40
2.0
1
AP locale - parametri non-safety
0
TEXT
8
TESTO
10
194
20
21
30
0
40
2.0
1
gate chiave -S-EN per cat. SR
0
LINE
8
CARTIGLIO
10
8
20
4
30
0
11
118
21
4
31
0
0
LINE
8
CARTIGLIO
10
118
20
4
30
0
11
118
21
32
31
0
0
LINE
8
CARTIGLIO
10
118
20
32
30
0
11
8
21
32
31
0
0
LINE
8
CARTIGLIO
10
8
20
32
30
0
11
8
21
4
31
0
0
LINE
8
CARTIGLIO
10
8
20
22
30
0
11
118
21
22
31
0
0
LINE
8
CARTIGLIO
10
88
20
4
30
0
11
88
21
32
31
0
0
TEXT
8
CARTIGLIO
10
11
20
25
30
0
40
3.0
1
I/O PLC MANOVRA
0
TEXT
8
TESTO
10
11
20
15
30
0
40
2.2
1
EN 81-20/50 - UNI 10411
0
TEXT
8
TESTO
10
11
20
8
30
0
40
2.2
1
Concept didattico - Rev. A
0
TEXT
8
TESTO
10
91
20
25
30
0
40
2.5
1
Foglio 4/4
0
TEXT
8
TESTO
10
91
20
15
30
0
40
2.2
1
Scala: -
0
TEXT
8
TESTO
10
91
20
8
30
0
40
2.2
1
geared/idraulico
0
ENDSEC
0
EOF
