0
SECTION
2
TABLES
0
TABLE
2
LAYER
70
6
0
LAYER
2
POTENZA
70
0
62
1
6
CONTINUOUS
0
LAYER
2
SICUREZZA
70
0
62
2
6
CONTINUOUS
0
LAYER
2
COMP
70
0
62
4
6
CONTINUOUS
0
LAYER
2
TESTO
70
0
62
7
6
CONTINUOUS
0
LAYER
2
CARTIGLIO
70
0
62
3
6
CONTINUOUS
0
LAYER
2
CORNICE
70
0
62
7
6
CONTINUOUS
0
ENDTAB
0
ENDSEC
0
SECTION
2
ENTITIES
0
LINE
8
CORNICE
10
0
20
0
30
0
11
297
21
0
31
0
0
LINE
8
CORNICE
10
297
20
0
30
0
11
297
21
210
31
0
0
LINE
8
CORNICE
10
297
20
210
30
0
11
0
21
210
31
0
0
LINE
8
CORNICE
10
0
20
210
30
0
11
0
21
0
31
0
0
TEXT
8
TESTO
10
8
20
200
30
0
40
4.0
1
MORSETTIERA E CAVI NUMERATI - quadro di manovra (geared/idraulico)
0
TEXT
8
TESTO
10
12
20
188
30
0
40
3.0
1
-X1  Sicurezza / segnali ingresso
0
TEXT
8
TESTO
10
12
20
183
30
0
40
2.0
1
campo: W4 catena (cabina/vano) + W7 segnali vano
0
TEXT
8
TESTO
10
12
20
154
30
0
40
2.0
1
interno quadro: PLC DI %I0.0..%I1.7
0
LINE
8
COMP
10
34
20
168
30
0
11
42
21
168
31
0
0
LINE
8
COMP
10
42
20
168
30
0
11
42
21
178
31
0
0
LINE
8
COMP
10
42
20
178
30
0
11
34
21
178
31
0
0
LINE
8
COMP
10
34
20
178
30
0
11
34
21
168
31
0
0
TEXT
8
TESTO
10
35.5
20
179.5
30
0
40
2.0
1
11
0
TEXT
8
POTENZA
10
34.6
20
172
30
0
40
1.7
1
11
0
LINE
8
POTENZA
10
38.0
20
178
30
0
11
38.0
21
181
31
0
0
LINE
8
COMP
10
38.0
20
168
30
0
11
38.0
21
165
31
0
0
LINE
8
COMP
10
43
20
168
30
0
11
51
21
168
31
0
0
LINE
8
COMP
10
51
20
168
30
0
11
51
21
178
31
0
0
LINE
8
COMP
10
51
20
178
30
0
11
43
21
178
31
0
0
LINE
8
COMP
10
43
20
178
30
0
11
43
21
168
31
0
0
TEXT
8
TESTO
10
44.5
20
179.5
30
0
40
2.0
1
12
0
TEXT
8
POTENZA
10
43.6
20
172
30
0
40
1.7
1
12
0
LINE
8
POTENZA
10
47.0
20
178
30
0
11
47.0
21
181
31
0
0
LINE
8
COMP
10
47.0
20
168
30
0
11
47.0
21
165
31
0
0
LINE
8
COMP
10
52
20
168
30
0
11
60
21
168
31
0
0
LINE
8
COMP
10
60
20
168
30
0
11
60
21
178
31
0
0
LINE
8
COMP
10
60
20
178
30
0
11
52
21
178
31
0
0
LINE
8
COMP
10
52
20
178
30
0
11
52
21
168
31
0
0
TEXT
8
TESTO
10
53.5
20
179.5
30
0
40
2.0
1
13
0
TEXT
8
POTENZA
10
52.6
20
172
30
0
40
1.7
1
13
0
LINE
8
POTENZA
10
56.0
20
178
30
0
11
56.0
21
181
31
0
0
LINE
8
COMP
10
56.0
20
168
30
0
11
56.0
21
165
31
0
0
LINE
8
COMP
10
61
20
168
30
0
11
69
21
168
31
0
0
LINE
8
COMP
10
69
20
168
30
0
11
69
21
178
31
0
0
LINE
8
COMP
10
69
20
178
30
0
11
61
21
178
31
0
0
LINE
8
COMP
10
61
20
178
30
0
11
61
21
168
31
0
0
TEXT
8
TESTO
10
62.5
20
179.5
30
0
40
2.0
1
14
0
TEXT
8
POTENZA
10
61.6
20
172
30
0
40
1.7
1
14
0
LINE
8
POTENZA
10
65.0
20
178
30
0
11
65.0
21
181
31
0
0
LINE
8
COMP
10
65.0
20
168
30
0
11
65.0
21
165
31
0
0
LINE
8
COMP
10
70
20
168
30
0
11
78
21
168
31
0
0
LINE
8
COMP
10
78
20
168
30
0
11
78
21
178
31
0
0
LINE
8
COMP
10
78
20
178
30
0
11
70
21
178
31
0
0
LINE
8
COMP
10
70
20
178
30
0
11
70
21
168
31
0
0
TEXT
8
TESTO
10
71.5
20
179.5
30
0
40
2.0
1
15
0
TEXT
8
POTENZA
10
70.6
20
172
30
0
40
1.7
1
15
0
LINE
8
POTENZA
10
74.0
20
178
30
0
11
74.0
21
181
31
0
0
LINE
8
COMP
10
74.0
20
168
30
0
11
74.0
21
165
31
0
0
LINE
8
COMP
10
79
20
168
30
0
11
87
21
168
31
0
0
LINE
8
COMP
10
87
20
168
30
0
11
87
21
178
31
0
0
LINE
8
COMP
10
87
20
178
30
0
11
79
21
178
31
0
0
LINE
8
COMP
10
79
20
178
30
0
11
79
21
168
31
0
0
TEXT
8
TESTO
10
80.5
20
179.5
30
0
40
2.0
1
16
0
TEXT
8
POTENZA
10
79.6
20
172
30
0
40
1.7
1
16
0
LINE
8
POTENZA
10
83.0
20
178
30
0
11
83.0
21
181
31
0
0
LINE
8
COMP
10
83.0
20
168
30
0
11
83.0
21
165
31
0
0
LINE
8
COMP
10
88
20
168
30
0
11
96
21
168
31
0
0
LINE
8
COMP
10
96
20
168
30
0
11
96
21
178
31
0
0
LINE
8
COMP
10
96
20
178
30
0
11
88
21
178
31
0
0
LINE
8
COMP
10
88
20
178
30
0
11
88
21
168
31
0
0
TEXT
8
TESTO
10
89.5
20
179.5
30
0
40
2.0
1
17
0
TEXT
8
POTENZA
10
88.6
20
172
30
0
40
1.7
1
17
0
LINE
8
POTENZA
10
92.0
20
178
30
0
11
92.0
21
181
31
0
0
LINE
8
COMP
10
92.0
20
168
30
0
11
92.0
21
165
31
0
0
LINE
8
COMP
10
97
20
168
30
0
11
105
21
168
31
0
0
LINE
8
COMP
10
105
20
168
30
0
11
105
21
178
31
0
0
LINE
8
COMP
10
105
20
178
30
0
11
97
21
178
31
0
0
LINE
8
COMP
10
97
20
178
30
0
11
97
21
168
31
0
0
TEXT
8
TESTO
10
98.5
20
179.5
30
0
40
2.0
1
18
0
TEXT
8
POTENZA
10
97.6
20
172
30
0
40
1.7
1
18
0
LINE
8
POTENZA
10
101.0
20
178
30
0
11
101.0
21
181
31
0
0
LINE
8
COMP
10
101.0
20
168
30
0
11
101.0
21
165
31
0
0
LINE
8
COMP
10
106
20
168
30
0
11
114
21
168
31
0
0
LINE
8
COMP
10
114
20
168
30
0
11
114
21
178
31
0
0
LINE
8
COMP
10
114
20
178
30
0
11
106
21
178
31
0
0
LINE
8
COMP
10
106
20
178
30
0
11
106
21
168
31
0
0
TEXT
8
TESTO
10
107.5
20
179.5
30
0
40
2.0
1
19
0
TEXT
8
POTENZA
10
106.6
20
172
30
0
40
1.7
1
19
0
LINE
8
POTENZA
10
110.0
20
178
30
0
11
110.0
21
181
31
0
0
LINE
8
COMP
10
110.0
20
168
30
0
11
110.0
21
165
31
0
0
LINE
8
COMP
10
115
20
168
30
0
11
123
21
168
31
0
0
LINE
8
COMP
10
123
20
168
30
0
11
123
21
178
31
0
0
LINE
8
COMP
10
123
20
178
30
0
11
115
21
178
31
0
0
LINE
8
COMP
10
115
20
178
30
0
11
115
21
168
31
0
0
TEXT
8
TESTO
10
116.5
20
179.5
30
0
40
2.0
1
20
0
TEXT
8
POTENZA
10
115.6
20
172
30
0
40
1.7
1
20
0
LINE
8
POTENZA
10
119.0
20
178
30
0
11
119.0
21
181
31
0
0
LINE
8
COMP
10
119.0
20
168
30
0
11
119.0
21
165
31
0
0
LINE
8
COMP
10
124
20
168
30
0
11
132
21
168
31
0
0
LINE
8
COMP
10
132
20
168
30
0
11
132
21
178
31
0
0
LINE
8
COMP
10
132
20
178
30
0
11
124
21
178
31
0
0
LINE
8
COMP
10
124
20
178
30
0
11
124
21
168
31
0
0
TEXT
8
TESTO
10
125.5
20
179.5
30
0
40
2.0
1
21
0
TEXT
8
POTENZA
10
124.6
20
172
30
0
40
1.7
1
21
0
LINE
8
POTENZA
10
128.0
20
178
30
0
11
128.0
21
181
31
0
0
LINE
8
COMP
10
128.0
20
168
30
0
11
128.0
21
165
31
0
0
LINE
8
COMP
10
133
20
168
30
0
11
141
21
168
31
0
0
LINE
8
COMP
10
141
20
168
30
0
11
141
21
178
31
0
0
LINE
8
COMP
10
141
20
178
30
0
11
133
21
178
31
0
0
LINE
8
COMP
10
133
20
178
30
0
11
133
21
168
31
0
0
TEXT
8
TESTO
10
134.5
20
179.5
30
0
40
2.0
1
22
0
TEXT
8
POTENZA
10
133.6
20
172
30
0
40
1.7
1
22
0
LINE
8
POTENZA
10
137.0
20
178
30
0
11
137.0
21
181
31
0
0
LINE
8
COMP
10
137.0
20
168
30
0
11
137.0
21
165
31
0
0
LINE
8
COMP
10
142
20
168
30
0
11
150
21
168
31
0
0
LINE
8
COMP
10
150
20
168
30
0
11
150
21
178
31
0
0
LINE
8
COMP
10
150
20
178
30
0
11
142
21
178
31
0
0
LINE
8
COMP
10
142
20
178
30
0
11
142
21
168
31
0
0
TEXT
8
TESTO
10
143.5
20
179.5
30
0
40
2.0
1
23
0
TEXT
8
POTENZA
10
142.6
20
172
30
0
40
1.7
1
23
0
LINE
8
POTENZA
10
146.0
20
178
30
0
11
146.0
21
181
31
0
0
LINE
8
COMP
10
146.0
20
168
30
0
11
146.0
21
165
31
0
0
LINE
8
COMP
10
151
20
168
30
0
11
159
21
168
31
0
0
LINE
8
COMP
10
159
20
168
30
0
11
159
21
178
31
0
0
LINE
8
COMP
10
159
20
178
30
0
11
151
21
178
31
0
0
LINE
8
COMP
10
151
20
178
30
0
11
151
21
168
31
0
0
TEXT
8
TESTO
10
152.5
20
179.5
30
0
40
2.0
1
24
0
TEXT
8
POTENZA
10
151.6
20
172
30
0
40
1.7
1
24
0
LINE
8
POTENZA
10
155.0
20
178
30
0
11
155.0
21
181
31
0
0
LINE
8
COMP
10
155.0
20
168
30
0
11
155.0
21
165
31
0
0
LINE
8
COMP
10
160
20
168
30
0
11
168
21
168
31
0
0
LINE
8
COMP
10
168
20
168
30
0
11
168
21
178
31
0
0
LINE
8
COMP
10
168
20
178
30
0
11
160
21
178
31
0
0
LINE
8
COMP
10
160
20
178
30
0
11
160
21
168
31
0
0
TEXT
8
TESTO
10
161.5
20
179.5
30
0
40
2.0
1
25
0
TEXT
8
POTENZA
10
160.6
20
172
30
0
40
1.7
1
25
0
LINE
8
POTENZA
10
164.0
20
178
30
0
11
164.0
21
181
31
0
0
LINE
8
COMP
10
164.0
20
168
30
0
11
164.0
21
165
31
0
0
LINE
8
COMP
10
169
20
168
30
0
11
177
21
168
31
0
0
LINE
8
COMP
10
177
20
168
30
0
11
177
21
178
31
0
0
LINE
8
COMP
10
177
20
178
30
0
11
169
21
178
31
0
0
LINE
8
COMP
10
169
20
178
30
0
11
169
21
168
31
0
0
TEXT
8
TESTO
10
170.5
20
179.5
30
0
40
2.0
1
26
0
TEXT
8
POTENZA
10
169.6
20
172
30
0
40
1.7
1
26
0
LINE
8
POTENZA
10
173.0
20
178
30
0
11
173.0
21
181
31
0
0
LINE
8
COMP
10
173.0
20
168
30
0
11
173.0
21
165
31
0
0
TEXT
8
TESTO
10
12
20
150
30
0
40
3.0
1
-X2  Chiamate cabina/piani
0
TEXT
8
TESTO
10
12
20
145
30
0
40
2.0
1
campo: W5 bus cabina (COP) + W6 bus piani (LOP)
0
TEXT
8
TESTO
10
12
20
116
30
0
40
2.0
1
interno quadro: PLC DI %IW2..%IW6
0
LINE
8
COMP
10
34
20
130
30
0
11
42
21
130
31
0
0
LINE
8
COMP
10
42
20
130
30
0
11
42
21
140
31
0
0
LINE
8
COMP
10
42
20
140
30
0
11
34
21
140
31
0
0
LINE
8
COMP
10
34
20
140
30
0
11
34
21
130
31
0
0
TEXT
8
TESTO
10
35.5
20
141.5
30
0
40
2.0
1
1
0
TEXT
8
POTENZA
10
34.6
20
134
30
0
40
1.7
1
C0
0
LINE
8
POTENZA
10
38.0
20
140
30
0
11
38.0
21
143
31
0
0
LINE
8
COMP
10
38.0
20
130
30
0
11
38.0
21
127
31
0
0
LINE
8
COMP
10
43
20
130
30
0
11
51
21
130
31
0
0
LINE
8
COMP
10
51
20
130
30
0
11
51
21
140
31
0
0
LINE
8
COMP
10
51
20
140
30
0
11
43
21
140
31
0
0
LINE
8
COMP
10
43
20
140
30
0
11
43
21
130
31
0
0
TEXT
8
TESTO
10
44.5
20
141.5
30
0
40
2.0
1
2
0
TEXT
8
POTENZA
10
43.6
20
134
30
0
40
1.7
1
C1
0
LINE
8
POTENZA
10
47.0
20
140
30
0
11
47.0
21
143
31
0
0
LINE
8
COMP
10
47.0
20
130
30
0
11
47.0
21
127
31
0
0
LINE
8
COMP
10
52
20
130
30
0
11
60
21
130
31
0
0
LINE
8
COMP
10
60
20
130
30
0
11
60
21
140
31
0
0
LINE
8
COMP
10
60
20
140
30
0
11
52
21
140
31
0
0
LINE
8
COMP
10
52
20
140
30
0
11
52
21
130
31
0
0
TEXT
8
TESTO
10
53.5
20
141.5
30
0
40
2.0
1
3
0
TEXT
8
POTENZA
10
52.6
20
134
30
0
40
1.7
1
C2
0
LINE
8
POTENZA
10
56.0
20
140
30
0
11
56.0
21
143
31
0
0
LINE
8
COMP
10
56.0
20
130
30
0
11
56.0
21
127
31
0
0
LINE
8
COMP
10
61
20
130
30
0
11
69
21
130
31
0
0
LINE
8
COMP
10
69
20
130
30
0
11
69
21
140
31
0
0
LINE
8
COMP
10
69
20
140
30
0
11
61
21
140
31
0
0
LINE
8
COMP
10
61
20
140
30
0
11
61
21
130
31
0
0
TEXT
8
TESTO
10
62.5
20
141.5
30
0
40
2.0
1
4
0
TEXT
8
POTENZA
10
61.6
20
134
30
0
40
1.7
1
C3
0
LINE
8
POTENZA
10
65.0
20
140
30
0
11
65.0
21
143
31
0
0
LINE
8
COMP
10
65.0
20
130
30
0
11
65.0
21
127
31
0
0
LINE
8
COMP
10
70
20
130
30
0
11
78
21
130
31
0
0
LINE
8
COMP
10
78
20
130
30
0
11
78
21
140
31
0
0
LINE
8
COMP
10
78
20
140
30
0
11
70
21
140
31
0
0
LINE
8
COMP
10
70
20
140
30
0
11
70
21
130
31
0
0
TEXT
8
TESTO
10
71.5
20
141.5
30
0
40
2.0
1
5
0
TEXT
8
POTENZA
10
70.6
20
134
30
0
40
1.7
1
C4
0
LINE
8
POTENZA
10
74.0
20
140
30
0
11
74.0
21
143
31
0
0
LINE
8
COMP
10
74.0
20
130
30
0
11
74.0
21
127
31
0
0
LINE
8
COMP
10
79
20
130
30
0
11
87
21
130
31
0
0
LINE
8
COMP
10
87
20
130
30
0
11
87
21
140
31
0
0
LINE
8
COMP
10
87
20
140
30
0
11
79
21
140
31
0
0
LINE
8
COMP
10
79
20
140
30
0
11
79
21
130
31
0
0
TEXT
8
TESTO
10
80.5
20
141.5
30
0
40
2.0
1
6
0
TEXT
8
POTENZA
10
79.6
20
134
30
0
40
1.7
1
C5
0
LINE
8
POTENZA
10
83.0
20
140
30
0
11
83.0
21
143
31
0
0
LINE
8
COMP
10
83.0
20
130
30
0
11
83.0
21
127
31
0
0
LINE
8
COMP
10
88
20
130
30
0
11
96
21
130
31
0
0
LINE
8
COMP
10
96
20
130
30
0
11
96
21
140
31
0
0
LINE
8
COMP
10
96
20
140
30
0
11
88
21
140
31
0
0
LINE
8
COMP
10
88
20
140
30
0
11
88
21
130
31
0
0
TEXT
8
TESTO
10
89.5
20
141.5
30
0
40
2.0
1
7
0
TEXT
8
POTENZA
10
88.6
20
134
30
0
40
1.7
1
PU0
0
LINE
8
POTENZA
10
92.0
20
140
30
0
11
92.0
21
143
31
0
0
LINE
8
COMP
10
92.0
20
130
30
0
11
92.0
21
127
31
0
0
LINE
8
COMP
10
97
20
130
30
0
11
105
21
130
31
0
0
LINE
8
COMP
10
105
20
130
30
0
11
105
21
140
31
0
0
LINE
8
COMP
10
105
20
140
30
0
11
97
21
140
31
0
0
LINE
8
COMP
10
97
20
140
30
0
11
97
21
130
31
0
0
TEXT
8
TESTO
10
98.5
20
141.5
30
0
40
2.0
1
8
0
TEXT
8
POTENZA
10
97.6
20
134
30
0
40
1.7
1
PU1
0
LINE
8
POTENZA
10
101.0
20
140
30
0
11
101.0
21
143
31
0
0
LINE
8
COMP
10
101.0
20
130
30
0
11
101.0
21
127
31
0
0
LINE
8
COMP
10
106
20
130
30
0
11
114
21
130
31
0
0
LINE
8
COMP
10
114
20
130
30
0
11
114
21
140
31
0
0
LINE
8
COMP
10
114
20
140
30
0
11
106
21
140
31
0
0
LINE
8
COMP
10
106
20
140
30
0
11
106
21
130
31
0
0
TEXT
8
TESTO
10
107.5
20
141.5
30
0
40
2.0
1
9
0
TEXT
8
POTENZA
10
106.6
20
134
30
0
40
1.7
1
PU2
0
LINE
8
POTENZA
10
110.0
20
140
30
0
11
110.0
21
143
31
0
0
LINE
8
COMP
10
110.0
20
130
30
0
11
110.0
21
127
31
0
0
LINE
8
COMP
10
115
20
130
30
0
11
123
21
130
31
0
0
LINE
8
COMP
10
123
20
130
30
0
11
123
21
140
31
0
0
LINE
8
COMP
10
123
20
140
30
0
11
115
21
140
31
0
0
LINE
8
COMP
10
115
20
140
30
0
11
115
21
130
31
0
0
TEXT
8
TESTO
10
116.5
20
141.5
30
0
40
2.0
1
10
0
TEXT
8
POTENZA
10
115.6
20
134
30
0
40
1.7
1
PD3
0
LINE
8
POTENZA
10
119.0
20
140
30
0
11
119.0
21
143
31
0
0
LINE
8
COMP
10
119.0
20
130
30
0
11
119.0
21
127
31
0
0
LINE
8
COMP
10
124
20
130
30
0
11
132
21
130
31
0
0
LINE
8
COMP
10
132
20
130
30
0
11
132
21
140
31
0
0
LINE
8
COMP
10
132
20
140
30
0
11
124
21
140
31
0
0
LINE
8
COMP
10
124
20
140
30
0
11
124
21
130
31
0
0
TEXT
8
TESTO
10
125.5
20
141.5
30
0
40
2.0
1
11
0
TEXT
8
POTENZA
10
124.6
20
134
30
0
40
1.7
1
PD4
0
LINE
8
POTENZA
10
128.0
20
140
30
0
11
128.0
21
143
31
0
0
LINE
8
COMP
10
128.0
20
130
30
0
11
128.0
21
127
31
0
0
LINE
8
COMP
10
133
20
130
30
0
11
141
21
130
31
0
0
LINE
8
COMP
10
141
20
130
30
0
11
141
21
140
31
0
0
LINE
8
COMP
10
141
20
140
30
0
11
133
21
140
31
0
0
LINE
8
COMP
10
133
20
140
30
0
11
133
21
130
31
0
0
TEXT
8
TESTO
10
134.5
20
141.5
30
0
40
2.0
1
12
0
TEXT
8
POTENZA
10
133.6
20
134
30
0
40
1.7
1
PD5
0
LINE
8
POTENZA
10
137.0
20
140
30
0
11
137.0
21
143
31
0
0
LINE
8
COMP
10
137.0
20
130
30
0
11
137.0
21
127
31
0
0
TEXT
8
TESTO
10
12
20
112
30
0
40
3.0
1
-X3  Uscite comando/potenza
0
TEXT
8
TESTO
10
12
20
107
30
0
40
2.0
1
campo: W2 motore/pompa + W3 freno + valvole
0
TEXT
8
TESTO
10
12
20
78
30
0
40
2.0
1
interno quadro: PLC DQ %Q0.0..%Q1.5 -> bobine -KM / -EV
0
LINE
8
COMP
10
34
20
92
30
0
11
42
21
92
31
0
0
LINE
8
COMP
10
42
20
92
30
0
11
42
21
102
31
0
0
LINE
8
COMP
10
42
20
102
30
0
11
34
21
102
31
0
0
LINE
8
COMP
10
34
20
102
30
0
11
34
21
92
31
0
0
TEXT
8
TESTO
10
35.5
20
103.5
30
0
40
2.0
1
1
0
TEXT
8
POTENZA
10
34.6
20
96
30
0
40
1.7
1
S
0
LINE
8
POTENZA
10
38.0
20
102
30
0
11
38.0
21
105
31
0
0
LINE
8
COMP
10
38.0
20
92
30
0
11
38.0
21
89
31
0
0
LINE
8
COMP
10
43
20
92
30
0
11
51
21
92
31
0
0
LINE
8
COMP
10
51
20
92
30
0
11
51
21
102
31
0
0
LINE
8
COMP
10
51
20
102
30
0
11
43
21
102
31
0
0
LINE
8
COMP
10
43
20
102
30
0
11
43
21
92
31
0
0
TEXT
8
TESTO
10
44.5
20
103.5
30
0
40
2.0
1
2
0
TEXT
8
POTENZA
10
43.6
20
96
30
0
40
1.7
1
D
0
LINE
8
POTENZA
10
47.0
20
102
30
0
11
47.0
21
105
31
0
0
LINE
8
COMP
10
47.0
20
92
30
0
11
47.0
21
89
31
0
0
LINE
8
COMP
10
52
20
92
30
0
11
60
21
92
31
0
0
LINE
8
COMP
10
60
20
92
30
0
11
60
21
102
31
0
0
LINE
8
COMP
10
60
20
102
30
0
11
52
21
102
31
0
0
LINE
8
COMP
10
52
20
102
30
0
11
52
21
92
31
0
0
TEXT
8
TESTO
10
53.5
20
103.5
30
0
40
2.0
1
3
0
TEXT
8
POTENZA
10
52.6
20
96
30
0
40
1.7
1
V
0
LINE
8
POTENZA
10
56.0
20
102
30
0
11
56.0
21
105
31
0
0
LINE
8
COMP
10
56.0
20
92
30
0
11
56.0
21
89
31
0
0
LINE
8
COMP
10
61
20
92
30
0
11
69
21
92
31
0
0
LINE
8
COMP
10
69
20
92
30
0
11
69
21
102
31
0
0
LINE
8
COMP
10
69
20
102
30
0
11
61
21
102
31
0
0
LINE
8
COMP
10
61
20
102
30
0
11
61
21
92
31
0
0
TEXT
8
TESTO
10
62.5
20
103.5
30
0
40
2.0
1
4
0
TEXT
8
POTENZA
10
61.6
20
96
30
0
40
1.7
1
L
0
LINE
8
POTENZA
10
65.0
20
102
30
0
11
65.0
21
105
31
0
0
LINE
8
COMP
10
65.0
20
92
30
0
11
65.0
21
89
31
0
0
LINE
8
COMP
10
70
20
92
30
0
11
78
21
92
31
0
0
LINE
8
COMP
10
78
20
92
30
0
11
78
21
102
31
0
0
LINE
8
COMP
10
78
20
102
30
0
11
70
21
102
31
0
0
LINE
8
COMP
10
70
20
102
30
0
11
70
21
92
31
0
0
TEXT
8
TESTO
10
71.5
20
103.5
30
0
40
2.0
1
5
0
TEXT
8
POTENZA
10
70.6
20
96
30
0
40
1.7
1
FRE
0
LINE
8
POTENZA
10
74.0
20
102
30
0
11
74.0
21
105
31
0
0
LINE
8
COMP
10
74.0
20
92
30
0
11
74.0
21
89
31
0
0
LINE
8
COMP
10
79
20
92
30
0
11
87
21
92
31
0
0
LINE
8
COMP
10
87
20
92
30
0
11
87
21
102
31
0
0
LINE
8
COMP
10
87
20
102
30
0
11
79
21
102
31
0
0
LINE
8
COMP
10
79
20
102
30
0
11
79
21
92
31
0
0
TEXT
8
TESTO
10
80.5
20
103.5
30
0
40
2.0
1
6
0
TEXT
8
POTENZA
10
79.6
20
96
30
0
40
1.7
1
P
0
LINE
8
POTENZA
10
83.0
20
102
30
0
11
83.0
21
105
31
0
0
LINE
8
COMP
10
83.0
20
92
30
0
11
83.0
21
89
31
0
0
LINE
8
COMP
10
88
20
92
30
0
11
96
21
92
31
0
0
LINE
8
COMP
10
96
20
92
30
0
11
96
21
102
31
0
0
LINE
8
COMP
10
96
20
102
30
0
11
88
21
102
31
0
0
LINE
8
COMP
10
88
20
102
30
0
11
88
21
92
31
0
0
TEXT
8
TESTO
10
89.5
20
103.5
30
0
40
2.0
1
7
0
TEXT
8
POTENZA
10
88.6
20
96
30
0
40
1.7
1
Y
0
LINE
8
POTENZA
10
92.0
20
102
30
0
11
92.0
21
105
31
0
0
LINE
8
COMP
10
92.0
20
92
30
0
11
92.0
21
89
31
0
0
LINE
8
COMP
10
97
20
92
30
0
11
105
21
92
31
0
0
LINE
8
COMP
10
105
20
92
30
0
11
105
21
102
31
0
0
LINE
8
COMP
10
105
20
102
30
0
11
97
21
102
31
0
0
LINE
8
COMP
10
97
20
102
30
0
11
97
21
92
31
0
0
TEXT
8
TESTO
10
98.5
20
103.5
30
0
40
2.0
1
8
0
TEXT
8
POTENZA
10
97.6
20
96
30
0
40
1.7
1
TR
0
LINE
8
POTENZA
10
101.0
20
102
30
0
11
101.0
21
105
31
0
0
LINE
8
COMP
10
101.0
20
92
30
0
11
101.0
21
89
31
0
0
LINE
8
COMP
10
106
20
92
30
0
11
114
21
92
31
0
0
LINE
8
COMP
10
114
20
92
30
0
11
114
21
102
31
0
0
LINE
8
COMP
10
114
20
102
30
0
11
106
21
102
31
0
0
LINE
8
COMP
10
106
20
102
30
0
11
106
21
92
31
0
0
TEXT
8
TESTO
10
107.5
20
103.5
30
0
40
2.0
1
9
0
TEXT
8
POTENZA
10
106.6
20
96
30
0
40
1.7
1
EVS
0
LINE
8
POTENZA
10
110.0
20
102
30
0
11
110.0
21
105
31
0
0
LINE
8
COMP
10
110.0
20
92
30
0
11
110.0
21
89
31
0
0
LINE
8
COMP
10
115
20
92
30
0
11
123
21
92
31
0
0
LINE
8
COMP
10
123
20
92
30
0
11
123
21
102
31
0
0
LINE
8
COMP
10
123
20
102
30
0
11
115
21
102
31
0
0
LINE
8
COMP
10
115
20
102
30
0
11
115
21
92
31
0
0
TEXT
8
TESTO
10
116.5
20
103.5
30
0
40
2.0
1
10
0
TEXT
8
POTENZA
10
115.6
20
96
30
0
40
1.7
1
EVD
0
LINE
8
POTENZA
10
119.0
20
102
30
0
11
119.0
21
105
31
0
0
LINE
8
COMP
10
119.0
20
92
30
0
11
119.0
21
89
31
0
0
LINE
8
COMP
10
124
20
92
30
0
11
132
21
92
31
0
0
LINE
8
COMP
10
132
20
92
30
0
11
132
21
102
31
0
0
LINE
8
COMP
10
132
20
102
30
0
11
124
21
102
31
0
0
LINE
8
COMP
10
124
20
102
30
0
11
124
21
92
31
0
0
TEXT
8
TESTO
10
125.5
20
103.5
30
0
40
2.0
1
11
0
TEXT
8
POTENZA
10
124.6
20
96
30
0
40
1.7
1
AP
0
LINE
8
POTENZA
10
128.0
20
102
30
0
11
128.0
21
105
31
0
0
LINE
8
COMP
10
128.0
20
92
30
0
11
128.0
21
89
31
0
0
LINE
8
COMP
10
133
20
92
30
0
11
141
21
92
31
0
0
LINE
8
COMP
10
141
20
92
30
0
11
141
21
102
31
0
0
LINE
8
COMP
10
141
20
102
30
0
11
133
21
102
31
0
0
LINE
8
COMP
10
133
20
102
30
0
11
133
21
92
31
0
0
TEXT
8
TESTO
10
134.5
20
103.5
30
0
40
2.0
1
12
0
TEXT
8
POTENZA
10
133.6
20
96
30
0
40
1.7
1
CH
0
LINE
8
POTENZA
10
137.0
20
102
30
0
11
137.0
21
105
31
0
0
LINE
8
COMP
10
137.0
20
92
30
0
11
137.0
21
89
31
0
0
LINE
8
COMP
10
142
20
92
30
0
11
150
21
92
31
0
0
LINE
8
COMP
10
150
20
92
30
0
11
150
21
102
31
0
0
LINE
8
COMP
10
150
20
102
30
0
11
142
21
102
31
0
0
LINE
8
COMP
10
142
20
102
30
0
11
142
21
92
31
0
0
TEXT
8
TESTO
10
143.5
20
103.5
30
0
40
2.0
1
13
0
TEXT
8
POTENZA
10
142.6
20
96
30
0
40
1.7
1
GO
0
LINE
8
POTENZA
10
146.0
20
102
30
0
11
146.0
21
105
31
0
0
LINE
8
COMP
10
146.0
20
92
30
0
11
146.0
21
89
31
0
0
LINE
8
COMP
10
151
20
92
30
0
11
159
21
92
31
0
0
LINE
8
COMP
10
159
20
92
30
0
11
159
21
102
31
0
0
LINE
8
COMP
10
159
20
102
30
0
11
151
21
102
31
0
0
LINE
8
COMP
10
151
20
102
30
0
11
151
21
92
31
0
0
TEXT
8
TESTO
10
152.5
20
103.5
30
0
40
2.0
1
14
0
TEXT
8
POTENZA
10
151.6
20
96
30
0
40
1.7
1
OOS
0
LINE
8
POTENZA
10
155.0
20
102
30
0
11
155.0
21
105
31
0
0
LINE
8
COMP
10
155.0
20
92
30
0
11
155.0
21
89
31
0
0
TEXT
8
TESTO
10
12
20
74
30
0
40
3.0
1
-X4  Segnalazioni
0
TEXT
8
TESTO
10
12
20
69
30
0
40
2.0
1
campo: W7 segnalazioni cabina/piani
0
TEXT
8
TESTO
10
12
20
40
30
0
40
2.0
1
interno quadro: PLC DQ %QW2..%QW4 + alim. 24V
0
LINE
8
COMP
10
34
20
54
30
0
11
42
21
54
31
0
0
LINE
8
COMP
10
42
20
54
30
0
11
42
21
64
31
0
0
LINE
8
COMP
10
42
20
64
30
0
11
34
21
64
31
0
0
LINE
8
COMP
10
34
20
64
30
0
11
34
21
54
31
0
0
TEXT
8
TESTO
10
35.5
20
65.5
30
0
40
2.0
1
1
0
TEXT
8
POTENZA
10
34.6
20
58
30
0
40
1.7
1
P0
0
LINE
8
POTENZA
10
38.0
20
64
30
0
11
38.0
21
67
31
0
0
LINE
8
COMP
10
38.0
20
54
30
0
11
38.0
21
51
31
0
0
LINE
8
COMP
10
43
20
54
30
0
11
51
21
54
31
0
0
LINE
8
COMP
10
51
20
54
30
0
11
51
21
64
31
0
0
LINE
8
COMP
10
51
20
64
30
0
11
43
21
64
31
0
0
LINE
8
COMP
10
43
20
64
30
0
11
43
21
54
31
0
0
TEXT
8
TESTO
10
44.5
20
65.5
30
0
40
2.0
1
2
0
TEXT
8
POTENZA
10
43.6
20
58
30
0
40
1.7
1
P1
0
LINE
8
POTENZA
10
47.0
20
64
30
0
11
47.0
21
67
31
0
0
LINE
8
COMP
10
47.0
20
54
30
0
11
47.0
21
51
31
0
0
LINE
8
COMP
10
52
20
54
30
0
11
60
21
54
31
0
0
LINE
8
COMP
10
60
20
54
30
0
11
60
21
64
31
0
0
LINE
8
COMP
10
60
20
64
30
0
11
52
21
64
31
0
0
LINE
8
COMP
10
52
20
64
30
0
11
52
21
54
31
0
0
TEXT
8
TESTO
10
53.5
20
65.5
30
0
40
2.0
1
3
0
TEXT
8
POTENZA
10
52.6
20
58
30
0
40
1.7
1
P2
0
LINE
8
POTENZA
10
56.0
20
64
30
0
11
56.0
21
67
31
0
0
LINE
8
COMP
10
56.0
20
54
30
0
11
56.0
21
51
31
0
0
LINE
8
COMP
10
61
20
54
30
0
11
69
21
54
31
0
0
LINE
8
COMP
10
69
20
54
30
0
11
69
21
64
31
0
0
LINE
8
COMP
10
69
20
64
30
0
11
61
21
64
31
0
0
LINE
8
COMP
10
61
20
64
30
0
11
61
21
54
31
0
0
TEXT
8
TESTO
10
62.5
20
65.5
30
0
40
2.0
1
4
0
TEXT
8
POTENZA
10
61.6
20
58
30
0
40
1.7
1
P4
0
LINE
8
POTENZA
10
65.0
20
64
30
0
11
65.0
21
67
31
0
0
LINE
8
COMP
10
65.0
20
54
30
0
11
65.0
21
51
31
0
0
LINE
8
COMP
10
70
20
54
30
0
11
78
21
54
31
0
0
LINE
8
COMP
10
78
20
54
30
0
11
78
21
64
31
0
0
LINE
8
COMP
10
78
20
64
30
0
11
70
21
64
31
0
0
LINE
8
COMP
10
70
20
64
30
0
11
70
21
54
31
0
0
TEXT
8
TESTO
10
71.5
20
65.5
30
0
40
2.0
1
5
0
TEXT
8
POTENZA
10
70.6
20
58
30
0
40
1.7
1
P8
0
LINE
8
POTENZA
10
74.0
20
64
30
0
11
74.0
21
67
31
0
0
LINE
8
COMP
10
74.0
20
54
30
0
11
74.0
21
51
31
0
0
LINE
8
COMP
10
79
20
54
30
0
11
87
21
54
31
0
0
LINE
8
COMP
10
87
20
54
30
0
11
87
21
64
31
0
0
LINE
8
COMP
10
87
20
64
30
0
11
79
21
64
31
0
0
LINE
8
COMP
10
79
20
64
30
0
11
79
21
54
31
0
0
TEXT
8
TESTO
10
80.5
20
65.5
30
0
40
2.0
1
6
0
TEXT
8
POTENZA
10
79.6
20
58
30
0
40
1.7
1
-
0
LINE
8
POTENZA
10
83.0
20
64
30
0
11
83.0
21
67
31
0
0
LINE
8
COMP
10
83.0
20
54
30
0
11
83.0
21
51
31
0
0
LINE
8
COMP
10
88
20
54
30
0
11
96
21
54
31
0
0
LINE
8
COMP
10
96
20
54
30
0
11
96
21
64
31
0
0
LINE
8
COMP
10
96
20
64
30
0
11
88
21
64
31
0
0
LINE
8
COMP
10
88
20
64
30
0
11
88
21
54
31
0
0
TEXT
8
TESTO
10
89.5
20
65.5
30
0
40
2.0
1
7
0
TEXT
8
POTENZA
10
88.6
20
58
30
0
40
1.7
1
-
0
LINE
8
POTENZA
10
92.0
20
64
30
0
11
92.0
21
67
31
0
0
LINE
8
COMP
10
92.0
20
54
30
0
11
92.0
21
51
31
0
0
LINE
8
COMP
10
97
20
54
30
0
11
105
21
54
31
0
0
LINE
8
COMP
10
105
20
54
30
0
11
105
21
64
31
0
0
LINE
8
COMP
10
105
20
64
30
0
11
97
21
64
31
0
0
LINE
8
COMP
10
97
20
64
30
0
11
97
21
54
31
0
0
TEXT
8
TESTO
10
98.5
20
65.5
30
0
40
2.0
1
8
0
TEXT
8
POTENZA
10
97.6
20
58
30
0
40
1.7
1
-
0
LINE
8
POTENZA
10
101.0
20
64
30
0
11
101.0
21
67
31
0
0
LINE
8
COMP
10
101.0
20
54
30
0
11
101.0
21
51
31
0
0
LINE
8
COMP
10
106
20
54
30
0
11
114
21
54
31
0
0
LINE
8
COMP
10
114
20
54
30
0
11
114
21
64
31
0
0
LINE
8
COMP
10
114
20
64
30
0
11
106
21
64
31
0
0
LINE
8
COMP
10
106
20
64
30
0
11
106
21
54
31
0
0
TEXT
8
TESTO
10
107.5
20
65.5
30
0
40
2.0
1
9
0
TEXT
8
POTENZA
10
106.6
20
58
30
0
40
1.7
1
DU
0
LINE
8
POTENZA
10
110.0
20
64
30
0
11
110.0
21
67
31
0
0
LINE
8
COMP
10
110.0
20
54
30
0
11
110.0
21
51
31
0
0
LINE
8
COMP
10
115
20
54
30
0
11
123
21
54
31
0
0
LINE
8
COMP
10
123
20
54
30
0
11
123
21
64
31
0
0
LINE
8
COMP
10
123
20
64
30
0
11
115
21
64
31
0
0
LINE
8
COMP
10
115
20
64
30
0
11
115
21
54
31
0
0
TEXT
8
TESTO
10
116.5
20
65.5
30
0
40
2.0
1
10
0
TEXT
8
POTENZA
10
115.6
20
58
30
0
40
1.7
1
DD
0
LINE
8
POTENZA
10
119.0
20
64
30
0
11
119.0
21
67
31
0
0
LINE
8
COMP
10
119.0
20
54
30
0
11
119.0
21
51
31
0
0
LINE
8
COMP
10
124
20
54
30
0
11
132
21
54
31
0
0
LINE
8
COMP
10
132
20
54
30
0
11
132
21
64
31
0
0
LINE
8
COMP
10
132
20
64
30
0
11
124
21
64
31
0
0
LINE
8
COMP
10
124
20
64
30
0
11
124
21
54
31
0
0
TEXT
8
TESTO
10
125.5
20
65.5
30
0
40
2.0
1
11
0
TEXT
8
POTENZA
10
124.6
20
58
30
0
40
1.7
1
0V
0
LINE
8
POTENZA
10
128.0
20
64
30
0
11
128.0
21
67
31
0
0
LINE
8
COMP
10
128.0
20
54
30
0
11
128.0
21
51
31
0
0
LINE
8
COMP
10
133
20
54
30
0
11
141
21
54
31
0
0
LINE
8
COMP
10
141
20
54
30
0
11
141
21
64
31
0
0
LINE
8
COMP
10
141
20
64
30
0
11
133
21
64
31
0
0
LINE
8
COMP
10
133
20
64
30
0
11
133
21
54
31
0
0
TEXT
8
TESTO
10
134.5
20
65.5
30
0
40
2.0
1
12
0
TEXT
8
POTENZA
10
133.6
20
58
30
0
40
1.7
1
+24
0
LINE
8
POTENZA
10
137.0
20
64
30
0
11
137.0
21
67
31
0
0
LINE
8
COMP
10
137.0
20
54
30
0
11
137.0
21
51
31
0
0
LINE
8
COMP
10
12
20
8
30
0
11
285
21
8
31
0
0
LINE
8
COMP
10
285
20
8
30
0
11
285
21
42
31
0
0
LINE
8
COMP
10
285
20
42
30
0
11
12
21
42
31
0
0
LINE
8
COMP
10
12
20
42
30
0
11
12
21
8
31
0
0
TEXT
8
TESTO
10
15
20
37
30
0
40
2.5
1
LEGENDA CAVI (vedi config/lista-cavi.csv e docs/04-morsettiera-cavi.md)
0
TEXT
8
TESTO
10
15
20
30
30
0
40
2.2
1
W1 rete 4G6 + PE        W2 motore/pompa 4G2.5    W3 freno 3G1.5
0
TEXT
8
TESTO
10
15
20
24
30
0
40
2.2
1
W4 catena sicurezza nG1  W5 COP cabina (CAN+24V)  W6 LOP piani (CAN+24V)
0
TEXT
8
TESTO
10
15
20
18
30
0
40
2.2
1
W7 segnali vano nG0.75   W8 RS485 2x0.5 schermato W9 ausiliari 24V 2x1.0
0
LINE
8
CARTIGLIO
10
178
20
8
30
0
11
288
21
8
31
0
0
LINE
8
CARTIGLIO
10
288
20
8
30
0
11
288
21
36
31
0
0
LINE
8
CARTIGLIO
10
288
20
36
30
0
11
178
21
36
31
0
0
LINE
8
CARTIGLIO
10
178
20
36
30
0
11
178
21
8
31
0
0
LINE
8
CARTIGLIO
10
178
20
26
30
0
11
288
21
26
31
0
0
LINE
8
CARTIGLIO
10
258
20
8
30
0
11
258
21
36
31
0
0
TEXT
8
CARTIGLIO
10
181
20
29
30
0
40
3.0
1
MORSETTIERA / CAVI
0
TEXT
8
TESTO
10
181
20
19
30
0
40
2.2
1
EN 81-20/50 - UNI 10411
0
TEXT
8
TESTO
10
181
20
12
30
0
40
2.2
1
Concept didattico - Rev. A
0
TEXT
8
TESTO
10
261
20
29
30
0
40
2.5
1
Foglio 5/5
0
TEXT
8
TESTO
10
261
20
19
30
0
40
2.2
1
Scala: -
0
TEXT
8
TESTO
10
261
20
12
30
0
40
2.2
1
geared/idraulico
0
ENDSEC
0
EOF
