0
SECTION
2
TABLES
0
TABLE
2
LAYER
70
6
0
LAYER
2
POTENZA
70
0
62
1
6
CONTINUOUS
0
LAYER
2
SICUREZZA
70
0
62
2
6
CONTINUOUS
0
LAYER
2
COMP
70
0
62
4
6
CONTINUOUS
0
LAYER
2
TESTO
70
0
62
7
6
CONTINUOUS
0
LAYER
2
CARTIGLIO
70
0
62
3
6
CONTINUOUS
0
LAYER
2
CORNICE
70
0
62
7
6
CONTINUOUS
0
ENDTAB
0
ENDSEC
0
SECTION
2
ENTITIES
0
LINE
8
CORNICE
10
0
20
0
30
0
11
297
21
0
31
0
0
LINE
8
CORNICE
10
297
20
0
30
0
11
297
21
210
31
0
0
LINE
8
CORNICE
10
297
20
210
30
0
11
0
21
210
31
0
0
LINE
8
CORNICE
10
0
20
210
30
0
11
0
21
0
31
0
0
TEXT
8
TESTO
10
8
20
200
30
0
40
4.0
1
SCHEMA DI POTENZA - ASCENSORE IDRAULICO (centralina + pistone)
0
LINE
8
POTENZA
10
20
20
60
30
0
11
20
21
185
31
0
0
TEXT
8
TESTO
10
18
20
188
30
0
40
2.5
1
L1
0
LINE
8
POTENZA
10
28
20
60
30
0
11
28
21
185
31
0
0
TEXT
8
TESTO
10
26
20
188
30
0
40
2.5
1
L2
0
LINE
8
POTENZA
10
36
20
60
30
0
11
36
21
185
31
0
0
TEXT
8
TESTO
10
34
20
188
30
0
40
2.5
1
L3
0
LINE
8
POTENZA
10
14
20
168
30
0
11
44
21
168
31
0
0
LINE
8
POTENZA
10
44
20
168
30
0
11
44
21
180
31
0
0
LINE
8
POTENZA
10
44
20
180
30
0
11
14
21
180
31
0
0
LINE
8
POTENZA
10
14
20
180
30
0
11
14
21
168
31
0
0
LINE
8
POTENZA
10
18
20
170
30
0
11
40
21
178
31
0
0
TEXT
8
TESTO
10
48
20
176
30
0
40
2.5
1
-QS1 Sezionatore 4P 32A bloccoporta
0
LINE
8
POTENZA
10
14
20
150
30
0
11
44
21
150
31
0
0
LINE
8
POTENZA
10
44
20
150
30
0
11
44
21
162
31
0
0
LINE
8
POTENZA
10
44
20
162
30
0
11
14
21
162
31
0
0
LINE
8
POTENZA
10
14
20
162
30
0
11
14
21
150
31
0
0
TEXT
8
TESTO
10
24
20
154
30
0
40
3.0
1
I>
0
TEXT
8
TESTO
10
48
20
156
30
0
40
2.5
1
-Q1 Magnetotermico pompa D25A
0
LINE
8
POTENZA
10
14
20
134
30
0
11
44
21
134
31
0
0
LINE
8
POTENZA
10
44
20
134
30
0
11
44
21
144
31
0
0
LINE
8
POTENZA
10
44
20
144
30
0
11
14
21
144
31
0
0
LINE
8
POTENZA
10
14
20
144
30
0
11
14
21
134
31
0
0
TEXT
8
TESTO
10
48
20
138
30
0
40
2.5
1
-KA-SEQ Rele sequenza/mancanza fase
0
LINE
8
POTENZA
10
14
20
116
30
0
11
42
21
116
31
0
0
LINE
8
POTENZA
10
42
20
116
30
0
11
42
21
128
31
0
0
LINE
8
POTENZA
10
42
20
128
30
0
11
14
21
128
31
0
0
LINE
8
POTENZA
10
14
20
128
30
0
11
14
21
116
31
0
0
LINE
8
POTENZA
10
18
20
118
30
0
11
38
21
125
31
0
0
TEXT
8
TESTO
10
46
20
124
30
0
40
3.0
1
-KM-P
0
TEXT
8
TESTO
10
46
20
118
30
0
40
2.2
1
Linea pompa
0
LINE
8
POTENZA
10
14
20
98
30
0
11
28
21
98
31
0
0
LINE
8
POTENZA
10
28
20
98
30
0
11
28
21
110
31
0
0
LINE
8
POTENZA
10
28
20
110
30
0
11
14
21
110
31
0
0
LINE
8
POTENZA
10
14
20
110
30
0
11
14
21
98
31
0
0
TEXT
8
TESTO
10
18
20
101
30
0
40
3.0
1
Y
0
TEXT
8
TESTO
10
14
20
92
30
0
40
2.2
1
-KM-Y Stella
0
LINE
8
POTENZA
10
32
20
98
30
0
11
46
21
98
31
0
0
LINE
8
POTENZA
10
46
20
98
30
0
11
46
21
110
31
0
0
LINE
8
POTENZA
10
46
20
110
30
0
11
32
21
110
31
0
0
LINE
8
POTENZA
10
32
20
110
30
0
11
32
21
98
31
0
0
TEXT
8
TESTO
10
36
20
101
30
0
40
3.0
1
D
0
TEXT
8
TESTO
10
32
20
92
30
0
40
2.2
1
-KM-D Triangolo
0
LINE
8
POTENZA
10
14
20
76
30
0
11
44
21
76
31
0
0
LINE
8
POTENZA
10
44
20
76
30
0
11
44
21
86
31
0
0
LINE
8
POTENZA
10
44
20
86
30
0
11
14
21
86
31
0
0
LINE
8
POTENZA
10
14
20
86
30
0
11
14
21
76
31
0
0
TEXT
8
TESTO
10
18
20
79
30
0
40
2.5
1
theta> + olio
0
TEXT
8
TESTO
10
48
20
80
30
0
40
2.2
1
-F-MOT PTC + termostato olio
0
CIRCLE
8
POTENZA
10
28
20
52
30
0
40
12
0
TEXT
8
TESTO
10
24
20
51
30
0
40
3.0
1
M 3~
0
TEXT
8
TESTO
10
44
20
52
30
0
40
2.5
1
-M1 Motore pompa
0
LINE
8
COMP
10
95
20
120
30
0
11
185
21
120
31
0
0
LINE
8
COMP
10
185
20
120
30
0
11
185
21
190
31
0
0
LINE
8
COMP
10
185
20
190
30
0
11
95
21
190
31
0
0
LINE
8
COMP
10
95
20
190
30
0
11
95
21
120
31
0
0
TEXT
8
TESTO
10
99
20
184
30
0
40
3.0
1
CENTRALINA OLEODINAMICA
0
CIRCLE
8
COMP
10
112
20
160
30
0
40
7
0
TEXT
8
TESTO
10
109
20
158
30
0
40
2.5
1
P
0
TEXT
8
TESTO
10
99
20
170
30
0
40
2.2
1
Pompa
0
LINE
8
COMP
10
130
20
145
30
0
11
178
21
145
31
0
0
LINE
8
COMP
10
178
20
145
30
0
11
178
21
175
31
0
0
LINE
8
COMP
10
178
20
175
30
0
11
130
21
175
31
0
0
LINE
8
COMP
10
130
20
175
30
0
11
130
21
145
31
0
0
TEXT
8
TESTO
10
133
20
169
30
0
40
2.5
1
BLOCCO VALVOLE
0
LINE
8
COMP
10
133
20
158
30
0
11
175
21
158
31
0
0
LINE
8
COMP
10
175
20
158
30
0
11
175
21
166
31
0
0
LINE
8
COMP
10
175
20
166
30
0
11
133
21
166
31
0
0
LINE
8
COMP
10
133
20
166
30
0
11
133
21
158
31
0
0
TEXT
8
TESTO
10
136
20
160
30
0
40
2.2
1
-EV-S salita
0
LINE
8
COMP
10
133
20
147
30
0
11
175
21
147
31
0
0
LINE
8
COMP
10
175
20
147
30
0
11
175
21
155
31
0
0
LINE
8
COMP
10
175
20
155
30
0
11
133
21
155
31
0
0
LINE
8
COMP
10
133
20
155
30
0
11
133
21
147
31
0
0
TEXT
8
TESTO
10
136
20
149
30
0
40
2.2
1
-EV-D discesa
0
LINE
8
COMP
10
95
20
124
30
0
11
185
21
124
31
0
0
LINE
8
COMP
10
185
20
124
30
0
11
185
21
138
31
0
0
LINE
8
COMP
10
185
20
138
30
0
11
95
21
138
31
0
0
LINE
8
COMP
10
95
20
138
30
0
11
95
21
124
31
0
0
TEXT
8
TESTO
10
99
20
128
30
0
40
2.2
1
Serbatoio olio + filtro + termostato
0
LINE
8
SICUREZZA
10
95
20
104
30
0
11
185
21
104
31
0
0
LINE
8
SICUREZZA
10
185
20
104
30
0
11
185
21
116
31
0
0
LINE
8
SICUREZZA
10
185
20
116
30
0
11
95
21
116
31
0
0
LINE
8
SICUREZZA
10
95
20
116
30
0
11
95
21
104
31
0
0
TEXT
8
SICUREZZA
10
99
20
109
30
0
40
2.5
1
Valvola di blocco rottura tubo (rupture valve)
0
TEXT
8
TESTO
10
99
20
105
30
0
40
2.0
1
Dispositivo di sicurezza meccanico - certificato
0
LINE
8
SICUREZZA
10
195
20
150
30
0
11
288
21
150
31
0
0
LINE
8
SICUREZZA
10
288
20
150
30
0
11
288
21
190
31
0
0
LINE
8
SICUREZZA
10
288
20
190
30
0
11
195
21
190
31
0
0
LINE
8
SICUREZZA
10
195
20
190
30
0
11
195
21
150
31
0
0
TEXT
8
SICUREZZA
10
199
20
184
30
0
40
3.0
1
A3 - UCM idraulico
0
TEXT
8
TESTO
10
199
20
176
30
0
40
2.2
1
Valvola di blocco / pawl device
0
TEXT
8
TESTO
10
199
20
170
30
0
40
2.2
1
Anti-deriva elettrico (re-livellamento)
0
TEXT
8
TESTO
10
199
20
164
30
0
40
2.2
1
Arresto a porte aperte fuori zona porta
0
TEXT
8
TESTO
10
199
20
158
30
0
40
2.0
1
Componenti certificati esame UE del tipo
0
LINE
8
COMP
10
195
20
104
30
0
11
288
21
104
31
0
0
LINE
8
COMP
10
288
20
104
30
0
11
288
21
144
31
0
0
LINE
8
COMP
10
288
20
144
30
0
11
195
21
144
31
0
0
LINE
8
COMP
10
195
20
144
30
0
11
195
21
104
31
0
0
TEXT
8
TESTO
10
199
20
138
30
0
40
3.0
1
DISCESA DI EMERGENZA
0
TEXT
8
TESTO
10
199
20
130
30
0
40
2.2
1
Valvola manuale a uomo presente
0
TEXT
8
TESTO
10
199
20
124
30
0
40
2.2
1
Riporto al piano in mancanza rete
0
TEXT
8
TESTO
10
199
20
118
30
0
40
2.2
1
Pompa a mano per recuperi di livello
0
TEXT
8
TESTO
10
199
20
112
30
0
40
2.0
1
Funzioni non-safety gestite dal PLC
0
LINE
8
CARTIGLIO
10
178
20
8
30
0
11
288
21
8
31
0
0
LINE
8
CARTIGLIO
10
288
20
8
30
0
11
288
21
36
31
0
0
LINE
8
CARTIGLIO
10
288
20
36
30
0
11
178
21
36
31
0
0
LINE
8
CARTIGLIO
10
178
20
36
30
0
11
178
21
8
31
0
0
LINE
8
CARTIGLIO
10
178
20
26
30
0
11
288
21
26
31
0
0
LINE
8
CARTIGLIO
10
258
20
8
30
0
11
258
21
36
31
0
0
TEXT
8
CARTIGLIO
10
181
20
29
30
0
40
3.0
1
POTENZA IDRAULICO
0
TEXT
8
TESTO
10
181
20
19
30
0
40
2.2
1
EN 81-20/50 - UNI 10411
0
TEXT
8
TESTO
10
181
20
12
30
0
40
2.2
1
Concept didattico - Rev. A
0
TEXT
8
TESTO
10
261
20
29
30
0
40
2.5
1
Foglio 2/4
0
TEXT
8
TESTO
10
261
20
19
30
0
40
2.2
1
Scala: -
0
TEXT
8
TESTO
10
261
20
12
30
0
40
2.2
1
geared/idraulico
0
ENDSEC
0
EOF
