0
SECTION
2
TABLES
0
TABLE
2
LAYER
70
6
0
LAYER
2
POTENZA
70
0
62
1
6
CONTINUOUS
0
LAYER
2
SICUREZZA
70
0
62
2
6
CONTINUOUS
0
LAYER
2
COMP
70
0
62
4
6
CONTINUOUS
0
LAYER
2
TESTO
70
0
62
7
6
CONTINUOUS
0
LAYER
2
CARTIGLIO
70
0
62
3
6
CONTINUOUS
0
LAYER
2
CORNICE
70
0
62
7
6
CONTINUOUS
0
ENDTAB
0
ENDSEC
0
SECTION
2
ENTITIES
0
LINE
8
CORNICE
10
0
20
0
30
0
11
297
21
0
31
0
0
LINE
8
CORNICE
10
297
20
0
30
0
11
297
21
210
31
0
0
LINE
8
CORNICE
10
297
20
210
30
0
11
0
21
210
31
0
0
LINE
8
CORNICE
10
0
20
210
30
0
11
0
21
0
31
0
0
TEXT
8
TESTO
10
8
20
200
30
0
40
4.0
1
SCHEMA DI POTENZA - ASCENSORE GEARED (argano 2 velocita')
0
LINE
8
POTENZA
10
20
20
60
30
0
11
20
21
185
31
0
0
TEXT
8
TESTO
10
18
20
188
30
0
40
2.5
1
L1
0
LINE
8
POTENZA
10
28
20
60
30
0
11
28
21
185
31
0
0
TEXT
8
TESTO
10
26
20
188
30
0
40
2.5
1
L2
0
LINE
8
POTENZA
10
36
20
60
30
0
11
36
21
185
31
0
0
TEXT
8
TESTO
10
34
20
188
30
0
40
2.5
1
L3
0
LINE
8
POTENZA
10
48
20
60
30
0
11
48
21
185
31
0
0
TEXT
8
TESTO
10
46
20
188
30
0
40
2.5
1
PE
0
LINE
8
POTENZA
10
14
20
168
30
0
11
44
21
168
31
0
0
LINE
8
POTENZA
10
44
20
168
30
0
11
44
21
180
31
0
0
LINE
8
POTENZA
10
44
20
180
30
0
11
14
21
180
31
0
0
LINE
8
POTENZA
10
14
20
180
30
0
11
14
21
168
31
0
0
LINE
8
POTENZA
10
18
20
170
30
0
11
40
21
178
31
0
0
TEXT
8
TESTO
10
48
20
176
30
0
40
2.5
1
-QS1 Sezionatore 4P 25A bloccoporta
0
LINE
8
POTENZA
10
14
20
150
30
0
11
44
21
150
31
0
0
LINE
8
POTENZA
10
44
20
150
30
0
11
44
21
162
31
0
0
LINE
8
POTENZA
10
44
20
162
30
0
11
14
21
162
31
0
0
LINE
8
POTENZA
10
14
20
162
30
0
11
14
21
150
31
0
0
TEXT
8
TESTO
10
24
20
154
30
0
40
3.0
1
I>
0
TEXT
8
TESTO
10
48
20
156
30
0
40
2.5
1
-Q1 Magnetotermico motore D16A
0
LINE
8
POTENZA
10
14
20
134
30
0
11
44
21
134
31
0
0
LINE
8
POTENZA
10
44
20
134
30
0
11
44
21
144
31
0
0
LINE
8
POTENZA
10
44
20
144
30
0
11
14
21
144
31
0
0
LINE
8
POTENZA
10
14
20
144
30
0
11
14
21
134
31
0
0
TEXT
8
TESTO
10
48
20
138
30
0
40
2.5
1
-KA-SEQ Rele sequenza/mancanza fase
0
LINE
8
POTENZA
10
14
20
116
30
0
11
42
21
116
31
0
0
LINE
8
POTENZA
10
42
20
116
30
0
11
42
21
128
31
0
0
LINE
8
POTENZA
10
42
20
128
30
0
11
14
21
128
31
0
0
LINE
8
POTENZA
10
14
20
128
30
0
11
14
21
116
31
0
0
LINE
8
POTENZA
10
18
20
118
30
0
11
38
21
125
31
0
0
TEXT
8
TESTO
10
46
20
124
30
0
40
3.0
1
-KM-S
0
TEXT
8
TESTO
10
46
20
118
30
0
40
2.2
1
Salita (inverte 2 fasi)
0
LINE
8
POTENZA
10
14
20
100
30
0
11
42
21
100
31
0
0
LINE
8
POTENZA
10
42
20
100
30
0
11
42
21
112
31
0
0
LINE
8
POTENZA
10
42
20
112
30
0
11
14
21
112
31
0
0
LINE
8
POTENZA
10
14
20
112
30
0
11
14
21
100
31
0
0
LINE
8
POTENZA
10
18
20
102
30
0
11
38
21
109
31
0
0
TEXT
8
TESTO
10
46
20
108
30
0
40
3.0
1
-KM-D
0
TEXT
8
TESTO
10
46
20
102
30
0
40
2.2
1
Discesa (interbloccato)
0
LINE
8
POTENZA
10
14
20
84
30
0
11
42
21
84
31
0
0
LINE
8
POTENZA
10
42
20
84
30
0
11
42
21
96
31
0
0
LINE
8
POTENZA
10
42
20
96
30
0
11
14
21
96
31
0
0
LINE
8
POTENZA
10
14
20
96
30
0
11
14
21
84
31
0
0
LINE
8
POTENZA
10
18
20
86
30
0
11
38
21
93
31
0
0
TEXT
8
TESTO
10
46
20
92
30
0
40
3.0
1
-KM-V
0
TEXT
8
TESTO
10
46
20
86
30
0
40
2.2
1
Alta velocita' (2p)
0
LINE
8
POTENZA
10
14
20
68
30
0
11
42
21
68
31
0
0
LINE
8
POTENZA
10
42
20
68
30
0
11
42
21
80
31
0
0
LINE
8
POTENZA
10
42
20
80
30
0
11
14
21
80
31
0
0
LINE
8
POTENZA
10
14
20
80
30
0
11
14
21
68
31
0
0
LINE
8
POTENZA
10
18
20
70
30
0
11
38
21
77
31
0
0
TEXT
8
TESTO
10
46
20
76
30
0
40
3.0
1
-KM-L
0
TEXT
8
TESTO
10
46
20
70
30
0
40
2.2
1
Bassa velocita' (4p)
0
LINE
8
POTENZA
10
14
20
52
30
0
11
44
21
52
31
0
0
LINE
8
POTENZA
10
44
20
52
30
0
11
44
21
62
31
0
0
LINE
8
POTENZA
10
44
20
62
30
0
11
14
21
62
31
0
0
LINE
8
POTENZA
10
14
20
62
30
0
11
14
21
52
31
0
0
TEXT
8
TESTO
10
20
20
55
30
0
40
2.5
1
theta> PTC
0
CIRCLE
8
POTENZA
10
28
20
30
30
0
40
12
0
TEXT
8
TESTO
10
24
20
29
30
0
40
3.0
1
M 3~
0
TEXT
8
TESTO
10
44
20
30
30
0
40
2.5
1
-M1 Motore argano 2 vel. (Dahlander)
0
LINE
8
COMP
10
110
20
150
30
0
11
144
21
150
31
0
0
LINE
8
COMP
10
144
20
150
30
0
11
144
21
162
31
0
0
LINE
8
COMP
10
144
20
162
30
0
11
110
21
162
31
0
0
LINE
8
COMP
10
110
20
162
30
0
11
110
21
150
31
0
0
TEXT
8
TESTO
10
114
20
154
30
0
40
2.5
1
~/= raddr.
0
TEXT
8
TESTO
10
148
20
156
30
0
40
2.2
1
-A-FRE Raddrizzatore + sovreccitazione
0
LINE
8
COMP
10
110
20
134
30
0
11
144
21
134
31
0
0
LINE
8
COMP
10
144
20
134
30
0
11
144
21
146
31
0
0
LINE
8
COMP
10
144
20
146
30
0
11
110
21
146
31
0
0
LINE
8
COMP
10
110
20
146
30
0
11
110
21
134
31
0
0
TEXT
8
TESTO
10
118
20
138
30
0
40
3.0
1
YB
0
TEXT
8
TESTO
10
148
20
140
30
0
40
2.2
1
-YB1 Freno doppio circuito
0
LINE
8
COMP
10
110
20
120
30
0
11
144
21
120
31
0
0
LINE
8
COMP
10
144
20
120
30
0
11
144
21
130
31
0
0
LINE
8
COMP
10
144
20
130
30
0
11
110
21
130
31
0
0
LINE
8
COMP
10
110
20
130
30
0
11
110
21
120
31
0
0
TEXT
8
TESTO
10
114
20
123
30
0
40
2.5
1
S1-S2
0
TEXT
8
TESTO
10
148
20
124
30
0
40
2.2
1
-S-FRE Microcontatti freno (UCM/A3)
0
LINE
8
SICUREZZA
10
170
20
150
30
0
11
288
21
150
31
0
0
LINE
8
SICUREZZA
10
288
20
150
30
0
11
288
21
190
31
0
0
LINE
8
SICUREZZA
10
288
20
190
30
0
11
170
21
190
31
0
0
LINE
8
SICUREZZA
10
170
20
190
30
0
11
170
21
150
31
0
0
TEXT
8
SICUREZZA
10
174
20
184
30
0
40
3.0
1
FUNZIONE A3 - UCM (movimento incontrollato)
0
TEXT
8
TESTO
10
174
20
176
30
0
40
2.2
1
Doppio freno validato come elemento di arresto
0
TEXT
8
TESTO
10
174
20
170
30
0
40
2.2
1
OPPURE rope brake esterno - certificato esame UE
0
TEXT
8
TESTO
10
174
20
164
30
0
40
2.2
1
Attivo a porte aperte fuori zona livellamento
0
LINE
8
COMP
10
170
20
100
30
0
11
288
21
100
31
0
0
LINE
8
COMP
10
288
20
100
30
0
11
288
21
142
31
0
0
LINE
8
COMP
10
288
20
142
30
0
11
170
21
142
31
0
0
LINE
8
COMP
10
170
20
142
30
0
11
170
21
100
31
0
0
TEXT
8
TESTO
10
174
20
136
30
0
40
3.0
1
VARIANTE VVVF (geared con inverter)
0
TEXT
8
TESTO
10
174
20
128
30
0
40
2.2
1
Inverter a monte del motore asincrono
0
TEXT
8
TESTO
10
174
20
122
30
0
40
2.2
1
Si eliminano -KM-V / -KM-L (velocita' da drive)
0
TEXT
8
TESTO
10
174
20
116
30
0
40
2.2
1
Resistenza frenatura su bus DC
0
TEXT
8
TESTO
10
174
20
110
30
0
40
2.2
1
Rampe/jerk parametrici (config/parametri.json)
0
LINE
8
CARTIGLIO
10
178
20
8
30
0
11
288
21
8
31
0
0
LINE
8
CARTIGLIO
10
288
20
8
30
0
11
288
21
36
31
0
0
LINE
8
CARTIGLIO
10
288
20
36
30
0
11
178
21
36
31
0
0
LINE
8
CARTIGLIO
10
178
20
36
30
0
11
178
21
8
31
0
0
LINE
8
CARTIGLIO
10
178
20
26
30
0
11
288
21
26
31
0
0
LINE
8
CARTIGLIO
10
258
20
8
30
0
11
258
21
36
31
0
0
TEXT
8
CARTIGLIO
10
181
20
29
30
0
40
3.0
1
POTENZA GEARED 2V
0
TEXT
8
TESTO
10
181
20
19
30
0
40
2.2
1
EN 81-20/50 - UNI 10411
0
TEXT
8
TESTO
10
181
20
12
30
0
40
2.2
1
Concept didattico - Rev. A
0
TEXT
8
TESTO
10
261
20
29
30
0
40
2.5
1
Foglio 1/4
0
TEXT
8
TESTO
10
261
20
19
30
0
40
2.2
1
Scala: -
0
TEXT
8
TESTO
10
261
20
12
30
0
40
2.2
1
geared/idraulico
0
ENDSEC
0
EOF
